<?xml version="1.0" encoding="UTF-8" standalone="no"?>
<!DOCTYPE svg PUBLIC "-//W3C//DTD SVG 1.1//EN" "http://www.w3.org/Graphics/SVG/1.1/DTD/svg11.dtd">
<!-- Gegenereerd door Microsoft Visio, SVG Export Example_4.svg Pagina-1 -->
<svg xmlns="http://www.w3.org/2000/svg" xmlns:xlink="http://www.w3.org/1999/xlink" xmlns:ev="http://www.w3.org/2001/xml-events"
		xmlns:v="http://schemas.microsoft.com/visio/2003/SVGExtensions/" width="5.07415in" height="2.27878in"
		viewBox="0 0 365.339 164.072" xml:space="preserve" color-interpolation-filters="sRGB" class="st8">
	<v:documentProperties v:langID="1043" v:metric="true" v:viewMarkup="false"/>

	<style type="text/css">
	<![CDATA[
		.st1 {stroke:#000000;stroke-linecap:round;stroke-linejoin:round;stroke-width:2}
		.st2 {marker-start:url(#mrkr5-21);stroke:#800000;stroke-linecap:round;stroke-linejoin:round;stroke-width:2}
		.st3 {fill:#800000;fill-opacity:1;stroke:#800000;stroke-opacity:1;stroke-width:0.44247787610619}
		.st4 {marker-end:url(#mrkr5-97);stroke:#800000;stroke-linecap:round;stroke-linejoin:round;stroke-width:2}
		.st5 {fill:#ffffff;stroke:#000000;stroke-linecap:round;stroke-linejoin:round;stroke-width:0.75}
		.st6 {fill:none;stroke:none;stroke-linecap:round;stroke-linejoin:round;stroke-width:0.24}
		.st7 {fill:#000000;font-family:Times New Roman;font-size:1.00001em}
		.st8 {fill:none;fill-rule:evenodd;font-size:12px;overflow:visible;stroke-linecap:square;stroke-miterlimit:3}
	]]>
	</style>

	<defs id="Markers">
		<g id="lend5">
			<path d="M 2 1 L 0 0 L 1.98117 -0.993387 C 1.67173 -0.364515 1.67301 0.372641 1.98465 1.00043 " style="stroke:none"/>
		</g>
		<marker id="mrkr5-21" class="st3" v:arrowType="5" v:arrowSize="2" v:setback="3.775" refX="3.775" orient="auto"
				markerUnits="strokeWidth" overflow="visible">
			<use xlink:href="#lend5" transform="scale(2.26) "/>
		</marker>
		<marker id="mrkr5-97" class="st3" v:arrowType="5" v:arrowSize="2" v:setback="3.775" refX="-3.775" orient="auto"
				markerUnits="strokeWidth" overflow="visible">
			<use xlink:href="#lend5" transform="scale(-2.26,-2.26) "/>
		</marker>
	</defs>
	<g v:mID="0" v:index="1" v:groupContext="foregroundPage">
		<title>Pagina-1</title>
		<v:pageProperties v:drawingScale="0.0393701" v:pageScale="0.0393701" v:drawingUnits="24" v:shadowOffsetX="8.50394"
				v:shadowOffsetY="-8.50394"/>
		<g id="shape395-1" v:mID="395" v:groupContext="shape" transform="translate(40.5794,-123.493)">
			<title>Ligger, 2 pt.395</title>
			<path d="M0 164.07 L14.17 164.07" class="st1"/>
		</g>
		<g id="shape371-4" v:mID="371" v:groupContext="shape" transform="translate(379.695,124.994) rotate(120.964)">
			<title>Ligger, 2 pt.371</title>
			<path d="M0 164.07 L14.17 164.07" class="st1"/>
		</g>
		<g id="shape305-7" v:mID="305" v:groupContext="shape" transform="translate(280.483,-43.835) rotate(59.0362)">
			<title>Ligger, 2 pt.305</title>
			<path d="M0 164.07 L2.83 164.07" class="st1"/>
		</g>
		<g id="shape341-10" v:mID="341" v:groupContext="shape" transform="translate(322.797,29.0509) rotate(59.0362)">
			<title>Ligger, 2 pt.341</title>
			<path d="M0 164.07 L14.17 164.07" class="st1"/>
		</g>
		<g id="shape342-13" v:mID="342" v:groupContext="shape" transform="translate(337.381,197.88) rotate(120.964)">
			<title>Ligger, 2 pt.342</title>
			<path d="M0 164.07 L14.17 164.07" class="st1"/>
		</g>
		<g id="shape345-16" v:mID="345" v:groupContext="shape" transform="translate(74.9323,38.4535) rotate(-90)">
			<title>Kracht.345</title>
			<path d="M7.55 164.07 L7.91 164.07 L28.35 164.07" class="st2"/>
		</g>
		<g id="shape347-22" v:mID="347" v:groupContext="shape" transform="translate(204.652,42.7055) rotate(90)">
			<title>Kracht.347</title>
			<path d="M7.55 164.07 L7.91 164.07 L28.35 164.07" class="st2"/>
		</g>
		<g id="shape348-27" v:mID="348" v:groupContext="shape" transform="translate(353.471,125.619) rotate(90)">
			<title>Kracht.348</title>
			<path d="M7.55 164.07 L7.91 164.07 L28.35 164.07" class="st2"/>
		</g>
		<g id="shape349-32" v:mID="349" v:groupContext="shape" transform="translate(452.683,125.619) rotate(90)">
			<title>Kracht.349</title>
			<path d="M7.55 164.07 L7.91 164.07 L28.35 164.07" class="st2"/>
		</g>
		<g id="shape350-37" v:mID="350" v:groupContext="shape" transform="translate(288.611,-38.4535)">
			<title>Kracht.350</title>
			<path d="M7.55 164.07 L7.91 164.07 L28.35 164.07" class="st2"/>
		</g>
		<g id="shape351-42" v:mID="351" v:groupContext="shape" transform="translate(189.398,-38.4535)">
			<title>Kracht.351</title>
			<path d="M7.55 164.07 L7.91 164.07 L28.35 164.07" class="st2"/>
		</g>
		<g id="shape352-47" v:mID="352" v:groupContext="shape" transform="translate(38.4535,204.652) rotate(180)">
			<title>Kracht.352</title>
			<path d="M7.55 164.07 L7.91 164.07 L28.35 164.07" class="st2"/>
		</g>
		<g id="shape353-52" v:mID="353" v:groupContext="shape" transform="translate(83.0991,204.652) rotate(180)">
			<title>Kracht.353</title>
			<path d="M7.55 164.07 L7.91 164.07 L28.35 164.07" class="st2"/>
		</g>
		<g id="shape354-57" v:mID="354" v:groupContext="shape" transform="translate(-109.32,40.5795) rotate(-90)">
			<title>Kracht.354</title>
			<path d="M7.55 164.07 L7.91 164.07 L28.35 164.07" class="st2"/>
		</g>
		<g id="shape355-62" v:mID="355" v:groupContext="shape" transform="translate(-10.1071,40.5795) rotate(-90)">
			<title>Kracht.355</title>
			<path d="M7.55 164.07 L7.91 164.07 L28.35 164.07" class="st2"/>
		</g>
		<g id="shape356-67" v:mID="356" v:groupContext="shape" transform="translate(289.691,40.5795) rotate(90)">
			<title>Kracht.356</title>
			<path d="M7.55 164.07 L7.91 164.07 L28.35 164.07" class="st2"/>
		</g>
		<g id="shape357-72" v:mID="357" v:groupContext="shape" transform="translate(20.9774,161.454) rotate(-120.964)">
			<title>Kracht.357</title>
			<path d="M7.55 164.07 L7.91 164.07 L28.35 164.07" class="st2"/>
		</g>
		<g id="shape358-77" v:mID="358" v:groupContext="shape" transform="translate(182.312,204.652) rotate(180)">
			<title>Kracht.358</title>
			<path d="M7.55 164.07 L7.91 164.07 L28.35 164.07" class="st2"/>
		</g>
		<g id="shape359-82" v:mID="359" v:groupContext="shape" transform="translate(97.2723,-123.493)">
			<title>Kracht.359</title>
			<path d="M7.55 164.07 L7.91 164.07 L28.35 164.07" class="st2"/>
		</g>
		<g id="shape360-87" v:mID="360" v:groupContext="shape" transform="translate(38.3626,-73.3737) rotate(-30.9638)">
			<title>Kracht.360</title>
			<path d="M7.55 164.07 L7.91 164.07 L28.35 164.07" class="st2"/>
		</g>
		<g id="shape361-92" v:mID="361" v:groupContext="shape" transform="translate(-38.4536,54.7527) rotate(-90)">
			<title>Moment</title>
			<path d="M-0 164.07 A14.1732 14.1732 0 0 1 14.17 149.9 A14.1732 14.1732 0 0 1 26.14 156.48 L26.24 156.82" class="st4"/>
		</g>
		<g id="shape363-98" v:mID="363" v:groupContext="shape" transform="translate(318.038,54.7527) rotate(90) scale(-1,1)">
			<title>Moment.363</title>
			<path d="M-0 164.07 A14.1732 14.1732 0 0 1 14.17 149.9 A14.1732 14.1732 0 0 1 26.14 156.48 L26.24 156.82" class="st4"/>
		</g>
		<g id="shape365-103" v:mID="365" v:groupContext="shape" transform="translate(196.485,-123.493)">
			<title>Kracht.365</title>
			<path d="M7.55 164.07 L7.91 164.07 L28.35 164.07" class="st2"/>
		</g>
		<g id="shape366-108" v:mID="366" v:groupContext="shape" transform="translate(281.524,204.652) rotate(180)">
			<title>Kracht.366</title>
			<path d="M7.55 164.07 L7.91 164.07 L28.35 164.07" class="st2"/>
		</g>
		<g id="shape370-113" v:mID="370" v:groupContext="shape" transform="translate(6.39328,137.148) rotate(-120.964)">
			<title>Ligger, 2 pt.370</title>
			<path d="M0 164.07 L14.17 164.07" class="st1"/>
		</g>
		<g id="shape312-116" v:mID="312" v:groupContext="shape" transform="translate(139.083,-118.532)">
			<title>Scharnier.312</title>
			<ellipse cx="2.12598" cy="161.946" rx="2.12598" ry="2.12598" class="st5"/>
		</g>
		<g id="shape314-118" v:mID="314" v:groupContext="shape" transform="translate(125.619,-123.493)">
			<title>Ligger, 2 pt.314</title>
			<path d="M0 164.07 L14.17 164.07" class="st1"/>
		</g>
		<g id="shape315-121" v:mID="315" v:groupContext="shape" transform="translate(139.792,-123.493)">
			<title>Ligger, 2 pt.315</title>
			<path d="M0 164.07 L14.17 164.07" class="st1"/>
		</g>
		<g id="shape372-124" v:mID="372" v:groupContext="shape" transform="translate(224.831,-123.493)">
			<title>Ligger, 2 pt.372</title>
			<path d="M0 164.07 L14.17 164.07" class="st1"/>
		</g>
		<g id="shape373-127" v:mID="373" v:groupContext="shape" transform="translate(239.005,-123.493)">
			<title>Ligger, 2 pt.373</title>
			<path d="M0 164.07 L14.17 164.07" class="st1"/>
		</g>
		<g id="shape374-130" v:mID="374" v:groupContext="shape" transform="translate(105.606,137.148) rotate(-120.964)">
			<title>Ligger, 2 pt.374</title>
			<path d="M0 164.07 L14.17 164.07" class="st1"/>
		</g>
		<g id="shape339-133" v:mID="339" v:groupContext="shape" transform="translate(236.879,-121.367)">
			<title>Scharnier.339</title>
			<ellipse cx="2.12598" cy="161.946" rx="2.12598" ry="2.12598" class="st5"/>
		</g>
		<g id="shape375-135" v:mID="375" v:groupContext="shape" transform="translate(388.904,40.5795) rotate(90)">
			<title>Kracht.375</title>
			<path d="M7.55 164.07 L7.91 164.07 L28.35 164.07" class="st2"/>
		</g>
		<g id="shape376-140" v:mID="376" v:groupContext="shape" transform="translate(308.213,4.7439) rotate(59.0362)">
			<title>Kracht.376</title>
			<path d="M7.55 164.07 L7.91 164.07 L28.35 164.07" class="st2"/>
		</g>
		<g id="shape377-145" v:mID="377" v:groupContext="shape" transform="translate(73.3847,-12.6412) rotate(-30.9638)">
			<title>Kracht.377</title>
			<path d="M7.55 164.07 L7.91 164.07 L28.35 164.07" class="st2"/>
		</g>
		<g id="shape378-150" v:mID="378" v:groupContext="shape" transform="translate(351.965,173.573) rotate(120.964)">
			<title>Kracht.378</title>
			<path d="M7.55 164.07 L7.91 164.07 L28.35 164.07" class="st2"/>
		</g>
		<g id="shape379-155" v:mID="379" v:groupContext="shape" transform="translate(136.583,268.74) rotate(-149.036)">
			<title>Kracht.379</title>
			<path d="M7.55 164.07 L7.91 164.07 L28.35 164.07" class="st2"/>
		</g>
		<g id="shape380-160" v:mID="380" v:groupContext="shape" transform="translate(76.4376,-7.37481) rotate(-59.0362)">
			<title>Kracht.380</title>
			<path d="M7.55 164.07 L7.91 164.07 L28.35 164.07" class="st2"/>
		</g>
		<g id="shape381-165" v:mID="381" v:groupContext="shape" transform="translate(171.605,208.008) rotate(-149.036)">
			<title>Kracht.381</title>
			<path d="M7.55 164.07 L7.91 164.07 L28.35 164.07" class="st2"/>
		</g>
		<g id="shape382-170" v:mID="382" v:groupContext="shape" transform="translate(120.19,161.454) rotate(-120.964)">
			<title>Kracht.382</title>
			<path d="M7.55 164.07 L7.91 164.07 L28.35 164.07" class="st2"/>
		</g>
		<g id="shape383-175" v:mID="383" v:groupContext="shape" transform="translate(355.018,178.84) rotate(149.036)">
			<title>Kracht.383</title>
			<path d="M7.55 164.07 L7.91 164.07 L28.35 164.07" class="st2"/>
		</g>
		<g id="shape384-180" v:mID="384" v:groupContext="shape" transform="translate(478.908,124.994) rotate(120.964)">
			<title>Ligger, 2 pt.384</title>
			<path d="M0 164.07 L14.17 164.07" class="st1"/>
		</g>
		<g id="shape385-183" v:mID="385" v:groupContext="shape" transform="translate(324.044,-123.493)">
			<title>Ligger, 2 pt.385</title>
			<path d="M0 164.07 L14.17 164.07" class="st1"/>
		</g>
		<g id="shape340-186" v:mID="340" v:groupContext="shape" transform="translate(336.091,-121.367)">
			<title>Scharnier.340</title>
			<ellipse cx="2.12598" cy="161.946" rx="2.12598" ry="2.12598" class="st5"/>
		</g>
		<g id="shape386-188" v:mID="386" v:groupContext="shape" transform="translate(295.698,-123.493)">
			<title>Kracht.386</title>
			<path d="M7.55 164.07 L7.91 164.07 L28.35 164.07" class="st2"/>
		</g>
		<g id="shape387-193" v:mID="387" v:groupContext="shape" transform="translate(175.65,-7.37484) rotate(-59.0362)">
			<title>Kracht.387</title>
			<path d="M7.55 164.07 L7.91 164.07 L28.35 164.07" class="st2"/>
		</g>
		<g id="shape388-198" v:mID="388" v:groupContext="shape" transform="translate(270.817,208.008) rotate(-149.036)">
			<title>Kracht.388</title>
			<path d="M7.55 164.07 L7.91 164.07 L28.35 164.07" class="st2"/>
		</g>
		<g id="shape389-203" v:mID="389" v:groupContext="shape" transform="translate(422.01,29.0509) rotate(59.0362)">
			<title>Ligger, 2 pt.389</title>
			<path d="M0 164.07 L14.17 164.07" class="st1"/>
		</g>
		<g id="shape390-206" v:mID="390" v:groupContext="shape" transform="translate(436.594,197.88) rotate(120.964)">
			<title>Ligger, 2 pt.390</title>
			<path d="M0 164.07 L14.17 164.07" class="st1"/>
		</g>
		<g id="shape391-209" v:mID="391" v:groupContext="shape" transform="translate(451.178,173.573) rotate(120.964)">
			<title>Kracht.391</title>
			<path d="M7.55 164.07 L7.91 164.07 L28.35 164.07" class="st2"/>
		</g>
		<g id="shape392-214" v:mID="392" v:groupContext="shape" transform="translate(235.795,268.74) rotate(-149.036)">
			<title>Kracht.392</title>
			<path d="M7.55 164.07 L7.91 164.07 L28.35 164.07" class="st2"/>
		</g>
		<g id="shape393-219" v:mID="393" v:groupContext="shape" transform="translate(407.425,4.7439) rotate(59.0362)">
			<title>Kracht.393</title>
			<path d="M7.55 164.07 L7.91 164.07 L28.35 164.07" class="st2"/>
		</g>
		<g id="shape394-224" v:mID="394" v:groupContext="shape" transform="translate(172.597,-12.6412) rotate(-30.9638)">
			<title>Kracht.394</title>
			<path d="M7.55 164.07 L7.91 164.07 L28.35 164.07" class="st2"/>
		</g>
		<g id="shape396-229" v:mID="396" v:groupContext="shape" transform="translate(293.46,-19.9298) rotate(30.9638) scale(-1,1)">
			<title>Moment.396</title>
			<path d="M-0 164.07 A14.1732 14.1732 0 0 1 14.17 149.9 A14.1732 14.1732 0 0 1 26.14 156.48 L26.24 156.82" class="st4"/>
		</g>
		<g id="shape397-234" v:mID="397" v:groupContext="shape" transform="translate(109.643,-34.514) rotate(-30.9638) scale(-1,1)">
			<title>Moment.397</title>
			<path d="M-0 164.07 A14.1732 14.1732 0 0 1 14.17 149.9 A14.1732 14.1732 0 0 1 26.14 156.48 L26.24 156.82" class="st4"/>
		</g>
		<g id="shape398-239" v:mID="398" v:groupContext="shape" transform="translate(392.673,-19.9298) rotate(30.9638) scale(-1,1)">
			<title>Moment.398</title>
			<path d="M-0 164.07 A14.1732 14.1732 0 0 1 14.17 149.9 A14.1732 14.1732 0 0 1 26.14 156.48 L26.24 156.82" class="st4"/>
		</g>
		<g id="shape399-244" v:mID="399" v:groupContext="shape" transform="translate(208.856,-34.514) rotate(-30.9638) scale(-1,1)">
			<title>Moment.399</title>
			<path d="M-0 164.07 A14.1732 14.1732 0 0 1 14.17 149.9 A14.1732 14.1732 0 0 1 26.14 156.48 L26.24 156.82" class="st4"/>
		</g>
		<g id="shape445-249" v:mID="445" v:groupContext="shape" transform="translate(33.4928,-130.579)">
			<title>Punt A.445</title>
			<desc>A</desc>
			<v:textBlock v:margins="rect(4,4,4,4)" v:tabSpace="42.5197"/>
			<v:textRect cx="7.08661" cy="156.986" width="14.18" height="14.1732"/>
			<rect x="0" y="149.899" width="14.1732" height="14.1732" class="st6"/>
			<text x="4" y="160.59" class="st7" v:langID="1043"><v:paragraph v:horizAlign="1"/><v:tabList/>A</text>		</g>
		<g id="shape446-252" v:mID="446" v:groupContext="shape" transform="translate(167.731,-24.2803)">
			<title>Punt A.446</title>
			<desc>B</desc>
			<v:textBlock v:margins="rect(4,4,4,4)" v:tabSpace="42.5197"/>
			<v:textRect cx="7.08661" cy="156.986" width="14.18" height="14.1732"/>
			<rect x="0" y="149.899" width="14.1732" height="14.1732" class="st6"/>
			<text x="4" y="160.59" class="st7" v:langID="1043"><v:paragraph v:horizAlign="1"/><v:tabList/>B</text>		</g>
		<g id="shape447-255" v:mID="447" v:groupContext="shape" transform="translate(266.944,-24.2803)">
			<title>Punt A.447</title>
			<desc>C</desc>
			<v:textBlock v:margins="rect(4,4,4,4)" v:tabSpace="42.5197"/>
			<v:textRect cx="7.08661" cy="156.986" width="14.18" height="14.1732"/>
			<rect x="0" y="149.899" width="14.1732" height="14.1732" class="st6"/>
			<text x="4" y="160.59" class="st7" v:langID="1043"><v:paragraph v:horizAlign="1"/><v:tabList/>C</text>		</g>
		<g id="shape448-258" v:mID="448" v:groupContext="shape" transform="translate(131.997,-130.579)">
			<title>Punt A.448</title>
			<desc>D</desc>
			<v:textBlock v:margins="rect(4,4,4,4)" v:tabSpace="42.5197"/>
			<v:textRect cx="7.08661" cy="156.986" width="14.18" height="14.1732"/>
			<rect x="0" y="149.899" width="14.1732" height="14.1732" class="st6"/>
			<text x="4" y="160.59" class="st7" v:langID="1043"><v:paragraph v:horizAlign="1"/><v:tabList/>D</text>		</g>
		<g id="shape449-261" v:mID="449" v:groupContext="shape" transform="translate(217.745,-130.579)">
			<title>Punt A.449</title>
			<desc>E</desc>
			<v:textBlock v:margins="rect(4,4,4,4)" v:tabSpace="42.5197"/>
			<v:textRect cx="7.08661" cy="156.986" width="14.18" height="14.1732"/>
			<rect x="0" y="149.899" width="14.1732" height="14.1732" class="st6"/>
			<text x="4" y="160.59" class="st7" v:langID="1043"><v:paragraph v:horizAlign="1"/><v:tabList/>E</text>		</g>
		<g id="shape450-264" v:mID="450" v:groupContext="shape" transform="translate(331.131,-130.579)">
			<title>Punt A.450</title>
			<desc>G</desc>
			<v:textBlock v:margins="rect(4,4,4,4)" v:tabSpace="42.5197"/>
			<v:textRect cx="7.08661" cy="156.986" width="14.18" height="14.1732"/>
			<rect x="0" y="149.899" width="14.1732" height="14.1732" class="st6"/>
			<text x="4" y="160.59" class="st7" v:langID="1043"><v:paragraph v:horizAlign="1"/><v:tabList/>G</text>		</g>
	</g>
</svg>
