<?xml version="1.0" encoding="UTF-8" standalone="no"?>
<!DOCTYPE svg PUBLIC "-//W3C//DTD SVG 1.1//EN" "http://www.w3.org/Graphics/SVG/1.1/DTD/svg11.dtd">
<!-- Gegenereerd door Microsoft Visio, SVG Export Example_8.svg Pagina-1 -->
<svg xmlns="http://www.w3.org/2000/svg" xmlns:xlink="http://www.w3.org/1999/xlink" xmlns:ev="http://www.w3.org/2001/xml-events"
		xmlns:v="http://schemas.microsoft.com/visio/2003/SVGExtensions/" width="3.6962in" height="2.27878in"
		viewBox="0 0 266.126 164.072" xml:space="preserve" color-interpolation-filters="sRGB" class="st8">
	<v:documentProperties v:langID="1043" v:metric="true" v:viewMarkup="false"/>

	<style type="text/css">
	<![CDATA[
		.st1 {stroke:#000000;stroke-linecap:round;stroke-linejoin:round;stroke-width:2}
		.st2 {marker-start:url(#mrkr5-21);stroke:#800000;stroke-linecap:round;stroke-linejoin:round;stroke-opacity:0.5;stroke-width:2}
		.st3 {fill:#800000;fill-opacity:0.5;stroke:#800000;stroke-opacity:0.5;stroke-width:0.44247787610619}
		.st4 {marker-end:url(#mrkr5-87);stroke:#800000;stroke-linecap:round;stroke-linejoin:round;stroke-opacity:0.5;stroke-width:2}
		.st5 {fill:#ffffff;stroke:#000000;stroke-linecap:round;stroke-linejoin:round;stroke-width:0.75}
		.st6 {fill:none;stroke:none;stroke-linecap:round;stroke-linejoin:round;stroke-width:0.75}
		.st7 {fill:#000000;font-family:Times New Roman;font-size:1.00001em}
		.st8 {fill:none;fill-rule:evenodd;font-size:12px;overflow:visible;stroke-linecap:square;stroke-miterlimit:3}
	]]>
	</style>

	<defs id="Markers">
		<g id="lend5">
			<path d="M 2 1 L 0 0 L 1.98117 -0.993387 C 1.67173 -0.364515 1.67301 0.372641 1.98465 1.00043 " style="stroke:none"/>
		</g>
		<marker id="mrkr5-21" class="st3" v:arrowType="5" v:arrowSize="2" v:setback="3.775" refX="3.775" orient="auto"
				markerUnits="strokeWidth" overflow="visible">
			<use xlink:href="#lend5" transform="scale(2.26) "/>
		</marker>
		<marker id="mrkr5-87" class="st3" v:arrowType="5" v:arrowSize="2" v:setback="3.775" refX="-3.775" orient="auto"
				markerUnits="strokeWidth" overflow="visible">
			<use xlink:href="#lend5" transform="scale(-2.26,-2.26) "/>
		</marker>
	</defs>
	<g v:mID="0" v:index="1" v:groupContext="foregroundPage">
		<title>Pagina-1</title>
		<v:pageProperties v:drawingScale="0.0393701" v:pageScale="0.0393701" v:drawingUnits="24" v:shadowOffsetX="8.50394"
				v:shadowOffsetY="-8.50394"/>
		<g id="shape1024-1" v:mID="1024" v:groupContext="shape" transform="translate(40.5794,-123.493)">
			<title>Ligger, 2 pt.1024</title>
			<path d="M0 164.07 L14.17 164.07" class="st1"/>
		</g>
		<g id="shape1025-4" v:mID="1025" v:groupContext="shape" transform="translate(379.695,124.994) rotate(120.964)">
			<title>Ligger, 2 pt.1025</title>
			<path d="M0 164.07 L14.17 164.07" class="st1"/>
		</g>
		<g id="shape1026-7" v:mID="1026" v:groupContext="shape" transform="translate(280.483,-43.835) rotate(59.0362)">
			<title>Ligger, 2 pt.1026</title>
			<path d="M0 164.07 L2.83 164.07" class="st1"/>
		</g>
		<g id="shape1027-10" v:mID="1027" v:groupContext="shape" transform="translate(322.797,29.0509) rotate(59.0362)">
			<title>Ligger, 2 pt.1027</title>
			<path d="M0 164.07 L14.17 164.07" class="st1"/>
		</g>
		<g id="shape1028-13" v:mID="1028" v:groupContext="shape" transform="translate(337.381,197.88) rotate(120.964)">
			<title>Ligger, 2 pt.1028</title>
			<path d="M0 164.07 L14.17 164.07" class="st1"/>
		</g>
		<g id="shape1029-16" v:mID="1029" v:groupContext="shape" transform="translate(74.9323,38.4535) rotate(-90)">
			<title>Kracht.1029</title>
			<path d="M7.55 164.07 L7.91 164.07 L28.35 164.07" class="st2"/>
		</g>
		<g id="shape1030-22" v:mID="1030" v:groupContext="shape" transform="translate(204.652,42.7055) rotate(90)">
			<title>Kracht.1030</title>
			<path d="M7.55 164.07 L7.91 164.07 L28.35 164.07" class="st2"/>
		</g>
		<g id="shape1031-27" v:mID="1031" v:groupContext="shape" transform="translate(353.471,125.619) rotate(90)">
			<title>Kracht.1031</title>
			<path d="M7.55 164.07 L7.91 164.07 L28.35 164.07" class="st2"/>
		</g>
		<g id="shape1034-32" v:mID="1034" v:groupContext="shape" transform="translate(189.398,-38.4535)">
			<title>Kracht.1034</title>
			<path d="M7.55 164.07 L7.91 164.07 L28.35 164.07" class="st2"/>
		</g>
		<g id="shape1035-37" v:mID="1035" v:groupContext="shape" transform="translate(38.4535,204.652) rotate(180)">
			<title>Kracht.1035</title>
			<path d="M7.55 164.07 L7.91 164.07 L28.35 164.07" class="st2"/>
		</g>
		<g id="shape1036-42" v:mID="1036" v:groupContext="shape" transform="translate(83.0991,204.652) rotate(180)">
			<title>Kracht.1036</title>
			<path d="M7.55 164.07 L7.91 164.07 L28.35 164.07" class="st2"/>
		</g>
		<g id="shape1037-47" v:mID="1037" v:groupContext="shape" transform="translate(-109.32,40.5795) rotate(-90)">
			<title>Kracht.1037</title>
			<path d="M7.55 164.07 L7.91 164.07 L28.35 164.07" class="st2"/>
		</g>
		<g id="shape1038-52" v:mID="1038" v:groupContext="shape" transform="translate(-10.1071,40.5795) rotate(-90)">
			<title>Kracht.1038</title>
			<path d="M7.55 164.07 L7.91 164.07 L28.35 164.07" class="st2"/>
		</g>
		<g id="shape1039-57" v:mID="1039" v:groupContext="shape" transform="translate(289.691,40.5795) rotate(90)">
			<title>Kracht.1039</title>
			<path d="M7.55 164.07 L7.91 164.07 L28.35 164.07" class="st2"/>
		</g>
		<g id="shape1040-62" v:mID="1040" v:groupContext="shape" transform="translate(20.9774,161.454) rotate(-120.964)">
			<title>Kracht.1040</title>
			<path d="M7.55 164.07 L7.91 164.07 L28.35 164.07" class="st2"/>
		</g>
		<g id="shape1041-67" v:mID="1041" v:groupContext="shape" transform="translate(182.312,204.652) rotate(180)">
			<title>Kracht.1041</title>
			<path d="M7.55 164.07 L7.91 164.07 L28.35 164.07" class="st2"/>
		</g>
		<g id="shape1042-72" v:mID="1042" v:groupContext="shape" transform="translate(97.2723,-123.493)">
			<title>Kracht.1042</title>
			<path d="M7.55 164.07 L7.91 164.07 L28.35 164.07" class="st2"/>
		</g>
		<g id="shape1043-77" v:mID="1043" v:groupContext="shape" transform="translate(38.3626,-73.3737) rotate(-30.9638)">
			<title>Kracht.1043</title>
			<path d="M7.55 164.07 L7.91 164.07 L28.35 164.07" class="st2"/>
		</g>
		<g id="shape1044-82" v:mID="1044" v:groupContext="shape" transform="translate(-38.4536,54.7527) rotate(-90)">
			<title>Moment.1044</title>
			<path d="M-0 164.07 A14.1732 14.1732 0 0 1 14.17 149.9 A14.1732 14.1732 0 0 1 26.14 156.48 L26.24 156.82" class="st4"/>
		</g>
		<g id="shape1045-88" v:mID="1045" v:groupContext="shape" transform="translate(318.038,54.7527) rotate(90) scale(-1,1)">
			<title>Moment.1045</title>
			<path d="M-0 164.07 A14.1732 14.1732 0 0 1 14.17 149.9 A14.1732 14.1732 0 0 1 26.14 156.48 L26.24 156.82" class="st4"/>
		</g>
		<g id="shape1046-93" v:mID="1046" v:groupContext="shape" transform="translate(196.485,-123.493)">
			<title>Kracht.1046</title>
			<path d="M7.55 164.07 L7.91 164.07 L28.35 164.07" class="st2"/>
		</g>
		<g id="shape1048-98" v:mID="1048" v:groupContext="shape" transform="translate(6.39328,137.148) rotate(-120.964)">
			<title>Ligger, 2 pt.1048</title>
			<path d="M0 164.07 L14.17 164.07" class="st1"/>
		</g>
		<g id="shape1049-101" v:mID="1049" v:groupContext="shape" transform="translate(139.083,-118.532)">
			<title>Scharnier.1049</title>
			<ellipse cx="2.12598" cy="161.946" rx="2.12598" ry="2.12598" class="st5"/>
		</g>
		<g id="shape1050-103" v:mID="1050" v:groupContext="shape" transform="translate(125.619,-123.493)">
			<title>Ligger, 2 pt.1050</title>
			<path d="M0 164.07 L14.17 164.07" class="st1"/>
		</g>
		<g id="shape1051-106" v:mID="1051" v:groupContext="shape" transform="translate(139.792,-123.493)">
			<title>Ligger, 2 pt.1051</title>
			<path d="M0 164.07 L14.17 164.07" class="st1"/>
		</g>
		<g id="shape1052-109" v:mID="1052" v:groupContext="shape" transform="translate(224.831,-123.493)">
			<title>Ligger, 2 pt.1052</title>
			<path d="M0 164.07 L14.17 164.07" class="st1"/>
		</g>
		<g id="shape1055-112" v:mID="1055" v:groupContext="shape" transform="translate(236.879,-121.367)">
			<title>Scharnier.1055</title>
			<ellipse cx="2.12598" cy="161.946" rx="2.12598" ry="2.12598" class="st5"/>
		</g>
		<g id="shape1056-114" v:mID="1056" v:groupContext="shape" transform="translate(388.904,40.5795) rotate(90)">
			<title>Kracht.1056</title>
			<path d="M7.55 164.07 L7.91 164.07 L28.35 164.07" class="st2"/>
		</g>
		<g id="shape1057-119" v:mID="1057" v:groupContext="shape" transform="translate(308.213,4.7439) rotate(59.0362)">
			<title>Kracht.1057</title>
			<path d="M7.55 164.07 L7.91 164.07 L28.35 164.07" class="st2"/>
		</g>
		<g id="shape1058-124" v:mID="1058" v:groupContext="shape" transform="translate(73.3847,-12.6412) rotate(-30.9638)">
			<title>Kracht.1058</title>
			<path d="M7.55 164.07 L7.91 164.07 L28.35 164.07" class="st2"/>
		</g>
		<g id="shape1059-129" v:mID="1059" v:groupContext="shape" transform="translate(351.965,173.573) rotate(120.964)">
			<title>Kracht.1059</title>
			<path d="M7.55 164.07 L7.91 164.07 L28.35 164.07" class="st2"/>
		</g>
		<g id="shape1060-134" v:mID="1060" v:groupContext="shape" transform="translate(136.583,268.74) rotate(-149.036)">
			<title>Kracht.1060</title>
			<path d="M7.55 164.07 L7.91 164.07 L28.35 164.07" class="st2"/>
		</g>
		<g id="shape1061-139" v:mID="1061" v:groupContext="shape" transform="translate(76.4376,-7.37481) rotate(-59.0362)">
			<title>Kracht.1061</title>
			<path d="M7.55 164.07 L7.91 164.07 L28.35 164.07" class="st2"/>
		</g>
		<g id="shape1062-144" v:mID="1062" v:groupContext="shape" transform="translate(171.605,208.008) rotate(-149.036)">
			<title>Kracht.1062</title>
			<path d="M7.55 164.07 L7.91 164.07 L28.35 164.07" class="st2"/>
		</g>
		<g id="shape1077-149" v:mID="1077" v:groupContext="shape"
				transform="translate(293.46,-19.9298) rotate(30.9638) scale(-1,1)">
			<title>Moment.1077</title>
			<path d="M-0 164.07 A14.1732 14.1732 0 0 1 14.17 149.9 A14.1732 14.1732 0 0 1 26.14 156.48 L26.24 156.82" class="st4"/>
		</g>
		<g id="shape1078-154" v:mID="1078" v:groupContext="shape"
				transform="translate(109.643,-34.514) rotate(-30.9638) scale(-1,1)">
			<title>Moment.1078</title>
			<path d="M-0 164.07 A14.1732 14.1732 0 0 1 14.17 149.9 A14.1732 14.1732 0 0 1 26.14 156.48 L26.24 156.82" class="st4"/>
		</g>
		<g id="shape1081-159" v:mID="1081" v:groupContext="shape" transform="translate(29.9564,-123.67)">
			<title>Blad.1081</title>
			<desc>2</desc>
			<v:textBlock v:margins="rect(4,4,4,4)" v:tabSpace="42.5197"/>
			<v:textRect cx="10.9843" cy="152.911" width="21.97" height="22.3228"/>
			<rect x="0" y="141.749" width="21.9685" height="22.3228" class="st6"/>
			<text x="7.98" y="156.51" class="st7" v:langID="1043"><v:paragraph v:horizAlign="1"/><v:tabList/>2</text>		</g>
		<g id="shape1082-162" v:mID="1082" v:groupContext="shape" transform="translate(129.169,-123.67)">
			<title>Blad.1082</title>
			<desc>3</desc>
			<v:textBlock v:margins="rect(4,4,4,4)" v:tabSpace="42.5197"/>
			<v:textRect cx="10.9843" cy="152.911" width="21.97" height="22.3228"/>
			<rect x="0" y="141.749" width="21.9685" height="22.3228" class="st6"/>
			<text x="7.98" y="156.51" class="st7" v:langID="1043"><v:paragraph v:horizAlign="1"/><v:tabList/>3</text>		</g>
		<g id="shape1083-165" v:mID="1083" v:groupContext="shape" transform="translate(217.043,-123.493)">
			<title>Blad.1083</title>
			<desc>2</desc>
			<v:textBlock v:margins="rect(4,4,4,4)" v:tabSpace="42.5197"/>
			<v:textRect cx="10.9843" cy="152.911" width="21.97" height="22.3228"/>
			<rect x="0" y="141.749" width="21.9685" height="22.3228" class="st6"/>
			<text x="7.98" y="156.51" class="st7" v:langID="1043"><v:paragraph v:horizAlign="1"/><v:tabList/>2</text>		</g>
		<g id="shape1086-168" v:mID="1086" v:groupContext="shape" transform="translate(189.097,-13.296)">
			<title>Blad.1086</title>
			<desc>3</desc>
			<v:textBlock v:margins="rect(4,4,4,4)" v:tabSpace="42.5197"/>
			<v:textRect cx="10.9843" cy="152.911" width="21.97" height="22.3228"/>
			<rect x="0" y="141.749" width="21.9685" height="22.3228" class="st6"/>
			<text x="7.98" y="156.51" class="st7" v:langID="1043"><v:paragraph v:horizAlign="1"/><v:tabList/>3</text>		</g>
	</g>
</svg>
