<?xml version="1.0" encoding="UTF-8" standalone="no"?>
<!DOCTYPE svg PUBLIC "-//W3C//DTD SVG 1.1//EN" "http://www.w3.org/Graphics/SVG/1.1/DTD/svg11.dtd">
<!-- Gegenereerd door Microsoft Visio, SVG Export Example.svg Pagina-1 -->
<svg xmlns="http://www.w3.org/2000/svg" xmlns:xlink="http://www.w3.org/1999/xlink" xmlns:ev="http://www.w3.org/2001/xml-events"
		xmlns:v="http://schemas.microsoft.com/visio/2003/SVGExtensions/" width="3.72105in" height="1.71054in"
		viewBox="0 0 267.915 123.159" xml:space="preserve" color-interpolation-filters="sRGB" class="st7">
	<v:documentProperties v:langID="1043" v:metric="true" v:viewMarkup="false"/>

	<style type="text/css">
	<![CDATA[
		.st1 {stroke:#000000;stroke-linecap:round;stroke-linejoin:round;stroke-width:2}
		.st2 {fill:#00cc99;stroke:#000000;stroke-linecap:round;stroke-linejoin:round;stroke-width:0.75}
		.st3 {stroke:#000000;stroke-linecap:round;stroke-linejoin:round;stroke-width:0.75}
		.st4 {fill:#ffffff;stroke:#000000;stroke-linecap:round;stroke-linejoin:round;stroke-width:0.75}
		.st5 {marker-start:url(#mrkr5-57);stroke:#800000;stroke-linecap:round;stroke-linejoin:round;stroke-width:2}
		.st6 {fill:#800000;fill-opacity:1;stroke:#800000;stroke-opacity:1;stroke-width:0.44247787610619}
		.st7 {fill:none;fill-rule:evenodd;font-size:12px;overflow:visible;stroke-linecap:square;stroke-miterlimit:3}
	]]>
	</style>

	<defs id="Markers">
		<g id="lend5">
			<path d="M 2 1 L 0 0 L 1.98117 -0.993387 C 1.67173 -0.364515 1.67301 0.372641 1.98465 1.00043 " style="stroke:none"/>
		</g>
		<marker id="mrkr5-57" class="st6" v:arrowType="5" v:arrowSize="2" v:setback="3.775" refX="3.775" orient="auto"
				markerUnits="strokeWidth" overflow="visible">
			<use xlink:href="#lend5" transform="scale(2.26) "/>
		</marker>
	</defs>
	<g v:mID="0" v:index="1" v:groupContext="foregroundPage">
		<title>Pagina-1</title>
		<v:pageProperties v:drawingScale="0.0393701" v:pageScale="0.0393701" v:drawingUnits="24" v:shadowOffsetX="8.50394"
				v:shadowOffsetY="-8.50394"/>
		<g id="shape10-1" v:mID="10" v:groupContext="shape" transform="translate(200.944,-22.7854) rotate(59.0362)">
			<title>Ligger, 2 pt.10</title>
			<path d="M0 123.16 L82.64 123.16" class="st1"/>
		</g>
		<g id="shape11-4" v:mID="11" v:groupContext="shape" transform="translate(285.983,103.944) rotate(120.964)">
			<title>Ligger, 2 pt.11</title>
			<path d="M0 123.16 L82.64 123.16" class="st1"/>
		</g>
		<g id="shape8-7" v:mID="8" v:groupContext="shape" transform="translate(285.983,-22.7854) rotate(59.0362)">
			<title>Ligger, 2 pt.8</title>
			<path d="M0 123.16 L82.64 123.16" class="st1"/>
		</g>
		<g id="group1-10" transform="translate(0.375,-71.2411)" v:mID="1" v:groupContext="group">
			<title>Scharnieroplegging</title>
			<g id="shape2-11" v:mID="2" v:groupContext="shape" transform="translate(2.83465,0)">
				<title>Blad.2</title>
				<path d="M0 123.16 L14.17 123.16 L7.09 111.82 L0 123.16 Z" class="st2"/>
			</g>
			<g id="shape3-13" v:mID="3" v:groupContext="shape" transform="translate(2.83465,246.318) rotate(180)">
				<title>Blad.3</title>
				<path d="M0 123.16 L2.83 123.16" class="st3"/>
			</g>
			<g id="shape4-16" v:mID="4" v:groupContext="shape" transform="translate(17.0079,0)">
				<title>Blad.4</title>
				<path d="M0 123.16 L2.83 123.16" class="st3"/>
			</g>
		</g>
		<g id="shape5-19" v:mID="5" v:groupContext="shape" transform="translate(10.2963,-82.5797)">
			<title>Ligger, 2 pt</title>
			<path d="M0 123.16 L170.08 123.16" class="st1"/>
		</g>
		<g id="shape6-22" v:mID="6" v:groupContext="shape" transform="translate(180.375,-82.5797)">
			<title>Ligger, 2 pt.6</title>
			<path d="M0 123.16 L85.04 123.16" class="st1"/>
		</g>
		<g id="shape7-25" v:mID="7" v:groupContext="shape" transform="translate(178.249,-80.4537)">
			<title>Scharnier</title>
			<ellipse cx="2.12598" cy="121.033" rx="2.12598" ry="2.12598" class="st4"/>
		</g>
		<g id="shape9-27" v:mID="9" v:groupContext="shape" transform="translate(371.023,103.944) rotate(120.964)">
			<title>Ligger, 2 pt.9</title>
			<path d="M0 123.16 L82.64 123.16" class="st1"/>
		</g>
		<g id="shape12-30" v:mID="12" v:groupContext="shape" transform="translate(263.288,-80.4537)">
			<title>Scharnier.12</title>
			<ellipse cx="2.12598" cy="121.033" rx="2.12598" ry="2.12598" class="st4"/>
		</g>
		<g id="shape13-32" v:mID="13" v:groupContext="shape" transform="translate(94.627,-77.6191)">
			<title>Scharnier.13</title>
			<ellipse cx="2.12598" cy="121.033" rx="2.12598" ry="2.12598" class="st4"/>
		</g>
		<g id="group26-34" transform="translate(127.934,-0.375)" v:mID="26" v:groupContext="group">
			<title>Scharnieroplegging.26</title>
			<g id="shape27-35" v:mID="27" v:groupContext="shape" transform="translate(2.83465,0)">
				<title>Blad.27</title>
				<path d="M0 123.16 L14.17 123.16 L7.09 111.82 L0 123.16 Z" class="st2"/>
			</g>
			<g id="shape28-37" v:mID="28" v:groupContext="shape" transform="translate(2.83465,246.318) rotate(180)">
				<title>Blad.28</title>
				<path d="M0 123.16 L2.83 123.16" class="st3"/>
			</g>
			<g id="shape29-40" v:mID="29" v:groupContext="shape" transform="translate(17.0079,0)">
				<title>Blad.29</title>
				<path d="M0 123.16 L2.83 123.16" class="st3"/>
			</g>
		</g>
		<g id="group30-43" transform="translate(212.973,-0.375)" v:mID="30" v:groupContext="group">
			<title>Scharnieroplegging.30</title>
			<g id="shape31-44" v:mID="31" v:groupContext="shape" transform="translate(2.83465,0)">
				<title>Blad.31</title>
				<path d="M0 123.16 L14.17 123.16 L7.09 111.82 L0 123.16 Z" class="st2"/>
			</g>
			<g id="shape32-46" v:mID="32" v:groupContext="shape" transform="translate(2.83465,246.318) rotate(180)">
				<title>Blad.32</title>
				<path d="M0 123.16 L2.83 123.16" class="st3"/>
			</g>
			<g id="shape33-49" v:mID="33" v:groupContext="shape" transform="translate(17.0079,0)">
				<title>Blad.33</title>
				<path d="M0 123.16 L2.83 123.16" class="st3"/>
			</g>
		</g>
		<g id="shape34-52" v:mID="34" v:groupContext="shape" transform="translate(57.2158,38.4535) rotate(-90)">
			<title>Kracht</title>
			<path d="M7.55 123.16 L7.91 123.16 L28.35 123.16" class="st5"/>
		</g>
	</g>
</svg>
