<?xml version="1.0" encoding="UTF-8" standalone="no"?>
<!DOCTYPE svg PUBLIC "-//W3C//DTD SVG 1.1//EN" "http://www.w3.org/Graphics/SVG/1.1/DTD/svg11.dtd">
<!-- Gegenereerd door Microsoft Visio, SVG Export Example_4.svg Pagina-1 -->
<svg xmlns="http://www.w3.org/2000/svg" xmlns:xlink="http://www.w3.org/1999/xlink" xmlns:ev="http://www.w3.org/2001/xml-events"
		xmlns:v="http://schemas.microsoft.com/visio/2003/SVGExtensions/" width="3.6962in" height="2.27878in"
		viewBox="0 0 266.126 164.072" xml:space="preserve" color-interpolation-filters="sRGB" class="st8">
	<v:documentProperties v:langID="1043" v:metric="true" v:viewMarkup="false"/>

	<style type="text/css">
	<![CDATA[
		.st1 {stroke:#000000;stroke-linecap:round;stroke-linejoin:round;stroke-width:2}
		.st2 {marker-start:url(#mrkr5-21);stroke:#800000;stroke-linecap:round;stroke-linejoin:round;stroke-width:2}
		.st3 {fill:#800000;fill-opacity:1;stroke:#800000;stroke-opacity:1;stroke-width:0.44247787610619}
		.st4 {marker-end:url(#mrkr5-87);stroke:#800000;stroke-linecap:round;stroke-linejoin:round;stroke-width:2}
		.st5 {fill:#ffffff;stroke:#000000;stroke-linecap:round;stroke-linejoin:round;stroke-width:0.75}
		.st6 {fill:none;stroke:none;stroke-linecap:round;stroke-linejoin:round;stroke-width:0.24}
		.st7 {fill:#000000;font-family:Times New Roman;font-size:1.00001em}
		.st8 {fill:none;fill-rule:evenodd;font-size:12px;overflow:visible;stroke-linecap:square;stroke-miterlimit:3}
	]]>
	</style>

	<defs id="Markers">
		<g id="lend5">
			<path d="M 2 1 L 0 0 L 1.98117 -0.993387 C 1.67173 -0.364515 1.67301 0.372641 1.98465 1.00043 " style="stroke:none"/>
		</g>
		<marker id="mrkr5-21" class="st3" v:arrowType="5" v:arrowSize="2" v:setback="3.775" refX="3.775" orient="auto"
				markerUnits="strokeWidth" overflow="visible">
			<use xlink:href="#lend5" transform="scale(2.26) "/>
		</marker>
		<marker id="mrkr5-87" class="st3" v:arrowType="5" v:arrowSize="2" v:setback="3.775" refX="-3.775" orient="auto"
				markerUnits="strokeWidth" overflow="visible">
			<use xlink:href="#lend5" transform="scale(-2.26,-2.26) "/>
		</marker>
	</defs>
	<g v:mID="0" v:index="1" v:groupContext="foregroundPage">
		<title>Pagina-1</title>
		<v:pageProperties v:drawingScale="0.0393701" v:pageScale="0.0393701" v:drawingUnits="24" v:shadowOffsetX="8.50394"
				v:shadowOffsetY="-8.50394"/>
		<g id="shape736-1" v:mID="736" v:groupContext="shape" transform="translate(40.5794,-123.493)">
			<title>Ligger, 2 pt.736</title>
			<path d="M0 164.07 L14.17 164.07" class="st1"/>
		</g>
		<g id="shape737-4" v:mID="737" v:groupContext="shape" transform="translate(379.695,124.994) rotate(120.964)">
			<title>Ligger, 2 pt.737</title>
			<path d="M0 164.07 L14.17 164.07" class="st1"/>
		</g>
		<g id="shape738-7" v:mID="738" v:groupContext="shape" transform="translate(280.483,-43.835) rotate(59.0362)">
			<title>Ligger, 2 pt.738</title>
			<path d="M0 164.07 L2.83 164.07" class="st1"/>
		</g>
		<g id="shape739-10" v:mID="739" v:groupContext="shape" transform="translate(322.797,29.0509) rotate(59.0362)">
			<title>Ligger, 2 pt.739</title>
			<path d="M0 164.07 L14.17 164.07" class="st1"/>
		</g>
		<g id="shape740-13" v:mID="740" v:groupContext="shape" transform="translate(337.381,197.88) rotate(120.964)">
			<title>Ligger, 2 pt.740</title>
			<path d="M0 164.07 L14.17 164.07" class="st1"/>
		</g>
		<g id="shape741-16" v:mID="741" v:groupContext="shape" transform="translate(74.9323,38.4535) rotate(-90)">
			<title>Kracht.741</title>
			<path d="M7.55 164.07 L7.91 164.07 L28.35 164.07" class="st2"/>
		</g>
		<g id="shape742-22" v:mID="742" v:groupContext="shape" transform="translate(204.652,42.7055) rotate(90)">
			<title>Kracht.742</title>
			<path d="M7.55 164.07 L7.91 164.07 L28.35 164.07" class="st2"/>
		</g>
		<g id="shape743-27" v:mID="743" v:groupContext="shape" transform="translate(353.471,125.619) rotate(90)">
			<title>Kracht.743</title>
			<path d="M7.55 164.07 L7.91 164.07 L28.35 164.07" class="st2"/>
		</g>
		<g id="shape745-32" v:mID="745" v:groupContext="shape" transform="translate(189.398,-38.4535)">
			<title>Kracht.745</title>
			<path d="M7.55 164.07 L7.91 164.07 L28.35 164.07" class="st2"/>
		</g>
		<g id="shape746-37" v:mID="746" v:groupContext="shape" transform="translate(38.4535,204.652) rotate(180)">
			<title>Kracht.746</title>
			<path d="M7.55 164.07 L7.91 164.07 L28.35 164.07" class="st2"/>
		</g>
		<g id="shape747-42" v:mID="747" v:groupContext="shape" transform="translate(83.0991,204.652) rotate(180)">
			<title>Kracht.747</title>
			<path d="M7.55 164.07 L7.91 164.07 L28.35 164.07" class="st2"/>
		</g>
		<g id="shape748-47" v:mID="748" v:groupContext="shape" transform="translate(-109.32,40.5795) rotate(-90)">
			<title>Kracht.748</title>
			<path d="M7.55 164.07 L7.91 164.07 L28.35 164.07" class="st2"/>
		</g>
		<g id="shape749-52" v:mID="749" v:groupContext="shape" transform="translate(-10.1071,40.5795) rotate(-90)">
			<title>Kracht.749</title>
			<path d="M7.55 164.07 L7.91 164.07 L28.35 164.07" class="st2"/>
		</g>
		<g id="shape750-57" v:mID="750" v:groupContext="shape" transform="translate(289.691,40.5795) rotate(90)">
			<title>Kracht.750</title>
			<path d="M7.55 164.07 L7.91 164.07 L28.35 164.07" class="st2"/>
		</g>
		<g id="shape751-62" v:mID="751" v:groupContext="shape" transform="translate(20.9774,161.454) rotate(-120.964)">
			<title>Kracht.751</title>
			<path d="M7.55 164.07 L7.91 164.07 L28.35 164.07" class="st2"/>
		</g>
		<g id="shape752-67" v:mID="752" v:groupContext="shape" transform="translate(182.312,204.652) rotate(180)">
			<title>Kracht.752</title>
			<path d="M7.55 164.07 L7.91 164.07 L28.35 164.07" class="st2"/>
		</g>
		<g id="shape753-72" v:mID="753" v:groupContext="shape" transform="translate(97.2723,-123.493)">
			<title>Kracht.753</title>
			<path d="M7.55 164.07 L7.91 164.07 L28.35 164.07" class="st2"/>
		</g>
		<g id="shape754-77" v:mID="754" v:groupContext="shape" transform="translate(38.3626,-73.3737) rotate(-30.9638)">
			<title>Kracht.754</title>
			<path d="M7.55 164.07 L7.91 164.07 L28.35 164.07" class="st2"/>
		</g>
		<g id="shape755-82" v:mID="755" v:groupContext="shape" transform="translate(-38.4536,54.7527) rotate(-90)">
			<title>Moment.755</title>
			<path d="M-0 164.07 A14.1732 14.1732 0 0 1 14.17 149.9 A14.1732 14.1732 0 0 1 26.14 156.48 L26.24 156.82" class="st4"/>
		</g>
		<g id="shape756-88" v:mID="756" v:groupContext="shape" transform="translate(318.038,54.7527) rotate(90) scale(-1,1)">
			<title>Moment.756</title>
			<path d="M-0 164.07 A14.1732 14.1732 0 0 1 14.17 149.9 A14.1732 14.1732 0 0 1 26.14 156.48 L26.24 156.82" class="st4"/>
		</g>
		<g id="shape757-93" v:mID="757" v:groupContext="shape" transform="translate(196.485,-123.493)">
			<title>Kracht.757</title>
			<path d="M7.55 164.07 L7.91 164.07 L28.35 164.07" class="st2"/>
		</g>
		<g id="shape759-98" v:mID="759" v:groupContext="shape" transform="translate(6.39328,137.148) rotate(-120.964)">
			<title>Ligger, 2 pt.759</title>
			<path d="M0 164.07 L14.17 164.07" class="st1"/>
		</g>
		<g id="shape760-101" v:mID="760" v:groupContext="shape" transform="translate(139.083,-118.532)">
			<title>Scharnier.760</title>
			<ellipse cx="2.12598" cy="161.946" rx="2.12598" ry="2.12598" class="st5"/>
		</g>
		<g id="shape761-103" v:mID="761" v:groupContext="shape" transform="translate(125.619,-123.493)">
			<title>Ligger, 2 pt.761</title>
			<path d="M0 164.07 L14.17 164.07" class="st1"/>
		</g>
		<g id="shape762-106" v:mID="762" v:groupContext="shape" transform="translate(139.792,-123.493)">
			<title>Ligger, 2 pt.762</title>
			<path d="M0 164.07 L14.17 164.07" class="st1"/>
		</g>
		<g id="shape763-109" v:mID="763" v:groupContext="shape" transform="translate(224.831,-123.493)">
			<title>Ligger, 2 pt.763</title>
			<path d="M0 164.07 L14.17 164.07" class="st1"/>
		</g>
		<g id="shape766-112" v:mID="766" v:groupContext="shape" transform="translate(236.879,-121.367)">
			<title>Scharnier.766</title>
			<ellipse cx="2.12598" cy="161.946" rx="2.12598" ry="2.12598" class="st5"/>
		</g>
		<g id="shape767-114" v:mID="767" v:groupContext="shape" transform="translate(388.904,40.5795) rotate(90)">
			<title>Kracht.767</title>
			<path d="M7.55 164.07 L7.91 164.07 L28.35 164.07" class="st2"/>
		</g>
		<g id="shape768-119" v:mID="768" v:groupContext="shape" transform="translate(308.213,4.7439) rotate(59.0362)">
			<title>Kracht.768</title>
			<path d="M7.55 164.07 L7.91 164.07 L28.35 164.07" class="st2"/>
		</g>
		<g id="shape769-124" v:mID="769" v:groupContext="shape" transform="translate(73.3847,-12.6412) rotate(-30.9638)">
			<title>Kracht.769</title>
			<path d="M7.55 164.07 L7.91 164.07 L28.35 164.07" class="st2"/>
		</g>
		<g id="shape770-129" v:mID="770" v:groupContext="shape" transform="translate(351.965,173.573) rotate(120.964)">
			<title>Kracht.770</title>
			<path d="M7.55 164.07 L7.91 164.07 L28.35 164.07" class="st2"/>
		</g>
		<g id="shape771-134" v:mID="771" v:groupContext="shape" transform="translate(136.583,268.74) rotate(-149.036)">
			<title>Kracht.771</title>
			<path d="M7.55 164.07 L7.91 164.07 L28.35 164.07" class="st2"/>
		</g>
		<g id="shape772-139" v:mID="772" v:groupContext="shape" transform="translate(76.4376,-7.37481) rotate(-59.0362)">
			<title>Kracht.772</title>
			<path d="M7.55 164.07 L7.91 164.07 L28.35 164.07" class="st2"/>
		</g>
		<g id="shape773-144" v:mID="773" v:groupContext="shape" transform="translate(171.605,208.008) rotate(-149.036)">
			<title>Kracht.773</title>
			<path d="M7.55 164.07 L7.91 164.07 L28.35 164.07" class="st2"/>
		</g>
		<g id="shape779-149" v:mID="779" v:groupContext="shape" transform="translate(293.46,-19.9298) rotate(30.9638) scale(-1,1)">
			<title>Moment.779</title>
			<path d="M-0 164.07 A14.1732 14.1732 0 0 1 14.17 149.9 A14.1732 14.1732 0 0 1 26.14 156.48 L26.24 156.82" class="st4"/>
		</g>
		<g id="shape780-154" v:mID="780" v:groupContext="shape" transform="translate(109.643,-34.514) rotate(-30.9638) scale(-1,1)">
			<title>Moment.780</title>
			<path d="M-0 164.07 A14.1732 14.1732 0 0 1 14.17 149.9 A14.1732 14.1732 0 0 1 26.14 156.48 L26.24 156.82" class="st4"/>
		</g>
		<g id="shape781-159" v:mID="781" v:groupContext="shape" transform="translate(33.4928,-130.579)">
			<title>Punt A.781</title>
			<desc>A</desc>
			<v:textBlock v:margins="rect(4,4,4,4)" v:tabSpace="42.5197"/>
			<v:textRect cx="7.08661" cy="156.986" width="14.18" height="14.1732"/>
			<rect x="0" y="149.899" width="14.1732" height="14.1732" class="st6"/>
			<text x="4" y="160.59" class="st7" v:langID="1043"><v:paragraph v:horizAlign="1"/><v:tabList/>A</text>		</g>
		<g id="shape782-162" v:mID="782" v:groupContext="shape" transform="translate(167.731,-24.2803)">
			<title>Punt A.782</title>
			<desc>B</desc>
			<v:textBlock v:margins="rect(4,4,4,4)" v:tabSpace="42.5197"/>
			<v:textRect cx="7.08661" cy="156.986" width="14.18" height="14.1732"/>
			<rect x="0" y="149.899" width="14.1732" height="14.1732" class="st6"/>
			<text x="4" y="160.59" class="st7" v:langID="1043"><v:paragraph v:horizAlign="1"/><v:tabList/>B</text>		</g>
		<g id="shape784-165" v:mID="784" v:groupContext="shape" transform="translate(131.997,-130.579)">
			<title>Punt A.784</title>
			<desc>C</desc>
			<v:textBlock v:margins="rect(4,4,4,4)" v:tabSpace="42.5197"/>
			<v:textRect cx="7.08661" cy="156.986" width="14.18" height="14.1732"/>
			<rect x="0" y="149.899" width="14.1732" height="14.1732" class="st6"/>
			<text x="4" y="160.59" class="st7" v:langID="1043"><v:paragraph v:horizAlign="1"/><v:tabList/>C</text>		</g>
		<g id="shape785-168" v:mID="785" v:groupContext="shape" transform="translate(217.745,-130.579)">
			<title>Punt A.785</title>
			<desc>D</desc>
			<v:textBlock v:margins="rect(4,4,4,4)" v:tabSpace="42.5197"/>
			<v:textRect cx="7.08661" cy="156.986" width="14.18" height="14.1732"/>
			<rect x="0" y="149.899" width="14.1732" height="14.1732" class="st6"/>
			<text x="4" y="160.59" class="st7" v:langID="1043"><v:paragraph v:horizAlign="1"/><v:tabList/>D</text>		</g>
	</g>
</svg>
