<?xml version="1.0" encoding="UTF-8" standalone="no"?>
<!DOCTYPE svg PUBLIC "-//W3C//DTD SVG 1.1//EN" "http://www.w3.org/Graphics/SVG/1.1/DTD/svg11.dtd">
<!-- Gegenereerd door Microsoft Visio, SVG Export Example_6.svg Pagina-1 -->
<svg xmlns="http://www.w3.org/2000/svg" xmlns:xlink="http://www.w3.org/1999/xlink" xmlns:ev="http://www.w3.org/2001/xml-events"
		xmlns:v="http://schemas.microsoft.com/visio/2003/SVGExtensions/" width="3.6962in" height="2.27878in"
		viewBox="0 0 266.126 164.072" xml:space="preserve" color-interpolation-filters="sRGB" class="st12">
	<v:documentProperties v:langID="1043" v:metric="true" v:viewMarkup="false"/>

	<style type="text/css">
	<![CDATA[
		.st1 {stroke:#000000;stroke-linecap:round;stroke-linejoin:round;stroke-opacity:0.5;stroke-width:2}
		.st2 {marker-start:url(#mrkr5-21);stroke:#800000;stroke-linecap:round;stroke-linejoin:round;stroke-opacity:0.5;stroke-width:2}
		.st3 {fill:#800000;fill-opacity:0.5;stroke:#800000;stroke-opacity:0.5;stroke-width:0.44247787610619}
		.st4 {marker-start:url(#mrkr5-27);stroke:#800000;stroke-linecap:round;stroke-linejoin:round;stroke-width:2}
		.st5 {fill:#800000;fill-opacity:1;stroke:#800000;stroke-opacity:1;stroke-width:0.44247787610619}
		.st6 {marker-end:url(#mrkr5-88);stroke:#800000;stroke-linecap:round;stroke-linejoin:round;stroke-width:2}
		.st7 {fill:#ffffff;stroke:#000000;stroke-linecap:round;stroke-linejoin:round;stroke-opacity:0.5;stroke-width:0.75}
		.st8 {fill:none;stroke:none;stroke-linecap:round;stroke-linejoin:round;stroke-width:0.24}
		.st9 {fill:#999999;font-family:Times New Roman;font-size:1.00001em}
		.st10 {fill:none;stroke:none;stroke-linecap:round;stroke-linejoin:round;stroke-width:0.75}
		.st11 {fill:#000000;font-family:Times New Roman;font-size:1.00001em}
		.st12 {fill:none;fill-rule:evenodd;font-size:12px;overflow:visible;stroke-linecap:square;stroke-miterlimit:3}
	]]>
	</style>

	<defs id="Markers">
		<g id="lend5">
			<path d="M 2 1 L 0 0 L 1.98117 -0.993387 C 1.67173 -0.364515 1.67301 0.372641 1.98465 1.00043 " style="stroke:none"/>
		</g>
		<marker id="mrkr5-21" class="st3" v:arrowType="5" v:arrowSize="2" v:setback="3.775" refX="3.775" orient="auto"
				markerUnits="strokeWidth" overflow="visible">
			<use xlink:href="#lend5" transform="scale(2.26) "/>
		</marker>
		<marker id="mrkr5-27" class="st5" v:arrowType="5" v:arrowSize="2" v:setback="3.775" refX="3.775" orient="auto"
				markerUnits="strokeWidth" overflow="visible">
			<use xlink:href="#lend5" transform="scale(2.26) "/>
		</marker>
		<marker id="mrkr5-88" class="st5" v:arrowType="5" v:arrowSize="2" v:setback="3.775" refX="-3.775" orient="auto"
				markerUnits="strokeWidth" overflow="visible">
			<use xlink:href="#lend5" transform="scale(-2.26,-2.26) "/>
		</marker>
	</defs>
	<g v:mID="0" v:index="1" v:groupContext="foregroundPage">
		<title>Pagina-1</title>
		<v:pageProperties v:drawingScale="0.0393701" v:pageScale="0.0393701" v:drawingUnits="24" v:shadowOffsetX="8.50394"
				v:shadowOffsetY="-8.50394"/>
		<g id="shape811-1" v:mID="811" v:groupContext="shape" transform="translate(40.5794,-123.493)">
			<title>Ligger, 2 pt.811</title>
			<path d="M0 164.07 L14.17 164.07" class="st1"/>
		</g>
		<g id="shape812-4" v:mID="812" v:groupContext="shape" transform="translate(379.695,124.994) rotate(120.964)">
			<title>Ligger, 2 pt.812</title>
			<path d="M0 164.07 L14.17 164.07" class="st1"/>
		</g>
		<g id="shape813-7" v:mID="813" v:groupContext="shape" transform="translate(280.483,-43.835) rotate(59.0362)">
			<title>Ligger, 2 pt.813</title>
			<path d="M0 164.07 L2.83 164.07" class="st1"/>
		</g>
		<g id="shape814-10" v:mID="814" v:groupContext="shape" transform="translate(322.797,29.0509) rotate(59.0362)">
			<title>Ligger, 2 pt.814</title>
			<path d="M0 164.07 L14.17 164.07" class="st1"/>
		</g>
		<g id="shape815-13" v:mID="815" v:groupContext="shape" transform="translate(337.381,197.88) rotate(120.964)">
			<title>Ligger, 2 pt.815</title>
			<path d="M0 164.07 L14.17 164.07" class="st1"/>
		</g>
		<g id="shape816-16" v:mID="816" v:groupContext="shape" transform="translate(74.9323,38.4535) rotate(-90)">
			<title>Kracht.816</title>
			<path d="M7.55 164.07 L7.91 164.07 L28.35 164.07" class="st2"/>
		</g>
		<g id="shape817-22" v:mID="817" v:groupContext="shape" transform="translate(204.652,42.7055) rotate(90)">
			<title>Kracht.817</title>
			<path d="M7.55 164.07 L7.91 164.07 L28.35 164.07" class="st4"/>
		</g>
		<g id="shape818-28" v:mID="818" v:groupContext="shape" transform="translate(353.471,125.619) rotate(90)">
			<title>Kracht.818</title>
			<path d="M7.55 164.07 L7.91 164.07 L28.35 164.07" class="st4"/>
		</g>
		<g id="shape821-33" v:mID="821" v:groupContext="shape" transform="translate(189.398,-38.4535)">
			<title>Kracht.821</title>
			<path d="M7.55 164.07 L7.91 164.07 L28.35 164.07" class="st4"/>
		</g>
		<g id="shape822-38" v:mID="822" v:groupContext="shape" transform="translate(38.4535,204.652) rotate(180)">
			<title>Kracht.822</title>
			<path d="M7.55 164.07 L7.91 164.07 L28.35 164.07" class="st4"/>
		</g>
		<g id="shape823-43" v:mID="823" v:groupContext="shape" transform="translate(83.0991,204.652) rotate(180)">
			<title>Kracht.823</title>
			<path d="M7.55 164.07 L7.91 164.07 L28.35 164.07" class="st4"/>
		</g>
		<g id="shape824-48" v:mID="824" v:groupContext="shape" transform="translate(-109.32,40.5795) rotate(-90)">
			<title>Kracht.824</title>
			<path d="M7.55 164.07 L7.91 164.07 L28.35 164.07" class="st4"/>
		</g>
		<g id="shape825-53" v:mID="825" v:groupContext="shape" transform="translate(-10.1071,40.5795) rotate(-90)">
			<title>Kracht.825</title>
			<path d="M7.55 164.07 L7.91 164.07 L28.35 164.07" class="st4"/>
		</g>
		<g id="shape826-58" v:mID="826" v:groupContext="shape" transform="translate(289.691,40.5795) rotate(90)">
			<title>Kracht.826</title>
			<path d="M7.55 164.07 L7.91 164.07 L28.35 164.07" class="st4"/>
		</g>
		<g id="shape827-63" v:mID="827" v:groupContext="shape" transform="translate(20.9774,161.454) rotate(-120.964)">
			<title>Kracht.827</title>
			<path d="M7.55 164.07 L7.91 164.07 L28.35 164.07" class="st4"/>
		</g>
		<g id="shape828-68" v:mID="828" v:groupContext="shape" transform="translate(182.312,204.652) rotate(180)">
			<title>Kracht.828</title>
			<path d="M7.55 164.07 L7.91 164.07 L28.35 164.07" class="st4"/>
		</g>
		<g id="shape829-73" v:mID="829" v:groupContext="shape" transform="translate(97.2723,-123.493)">
			<title>Kracht.829</title>
			<path d="M7.55 164.07 L7.91 164.07 L28.35 164.07" class="st4"/>
		</g>
		<g id="shape830-78" v:mID="830" v:groupContext="shape" transform="translate(38.3626,-73.3737) rotate(-30.9638)">
			<title>Kracht.830</title>
			<path d="M7.55 164.07 L7.91 164.07 L28.35 164.07" class="st4"/>
		</g>
		<g id="shape831-83" v:mID="831" v:groupContext="shape" transform="translate(-38.4536,54.7527) rotate(-90)">
			<title>Moment.831</title>
			<path d="M-0 164.07 A14.1732 14.1732 0 0 1 14.17 149.9 A14.1732 14.1732 0 0 1 26.14 156.48 L26.24 156.82" class="st6"/>
		</g>
		<g id="shape832-89" v:mID="832" v:groupContext="shape" transform="translate(318.038,54.7527) rotate(90) scale(-1,1)">
			<title>Moment.832</title>
			<path d="M-0 164.07 A14.1732 14.1732 0 0 1 14.17 149.9 A14.1732 14.1732 0 0 1 26.14 156.48 L26.24 156.82" class="st6"/>
		</g>
		<g id="shape833-94" v:mID="833" v:groupContext="shape" transform="translate(196.485,-123.493)">
			<title>Kracht.833</title>
			<path d="M7.55 164.07 L7.91 164.07 L28.35 164.07" class="st4"/>
		</g>
		<g id="shape835-99" v:mID="835" v:groupContext="shape" transform="translate(6.39328,137.148) rotate(-120.964)">
			<title>Ligger, 2 pt.835</title>
			<path d="M0 164.07 L14.17 164.07" class="st1"/>
		</g>
		<g id="shape836-102" v:mID="836" v:groupContext="shape" transform="translate(139.083,-118.532)">
			<title>Scharnier.836</title>
			<ellipse cx="2.12598" cy="161.946" rx="2.12598" ry="2.12598" class="st7"/>
		</g>
		<g id="shape837-104" v:mID="837" v:groupContext="shape" transform="translate(125.619,-123.493)">
			<title>Ligger, 2 pt.837</title>
			<path d="M0 164.07 L14.17 164.07" class="st1"/>
		</g>
		<g id="shape838-107" v:mID="838" v:groupContext="shape" transform="translate(139.792,-123.493)">
			<title>Ligger, 2 pt.838</title>
			<path d="M0 164.07 L14.17 164.07" class="st1"/>
		</g>
		<g id="shape839-110" v:mID="839" v:groupContext="shape" transform="translate(224.831,-123.493)">
			<title>Ligger, 2 pt.839</title>
			<path d="M0 164.07 L14.17 164.07" class="st1"/>
		</g>
		<g id="shape842-113" v:mID="842" v:groupContext="shape" transform="translate(236.879,-121.367)">
			<title>Scharnier.842</title>
			<ellipse cx="2.12598" cy="161.946" rx="2.12598" ry="2.12598" class="st7"/>
		</g>
		<g id="shape843-115" v:mID="843" v:groupContext="shape" transform="translate(388.904,40.5795) rotate(90)">
			<title>Kracht.843</title>
			<path d="M7.55 164.07 L7.91 164.07 L28.35 164.07" class="st4"/>
		</g>
		<g id="shape844-120" v:mID="844" v:groupContext="shape" transform="translate(308.213,4.7439) rotate(59.0362)">
			<title>Kracht.844</title>
			<path d="M7.55 164.07 L7.91 164.07 L28.35 164.07" class="st4"/>
		</g>
		<g id="shape845-125" v:mID="845" v:groupContext="shape" transform="translate(73.3847,-12.6412) rotate(-30.9638)">
			<title>Kracht.845</title>
			<path d="M7.55 164.07 L7.91 164.07 L28.35 164.07" class="st4"/>
		</g>
		<g id="shape846-130" v:mID="846" v:groupContext="shape" transform="translate(351.965,173.573) rotate(120.964)">
			<title>Kracht.846</title>
			<path d="M7.55 164.07 L7.91 164.07 L28.35 164.07" class="st4"/>
		</g>
		<g id="shape847-135" v:mID="847" v:groupContext="shape" transform="translate(136.583,268.74) rotate(-149.036)">
			<title>Kracht.847</title>
			<path d="M7.55 164.07 L7.91 164.07 L28.35 164.07" class="st4"/>
		</g>
		<g id="shape848-140" v:mID="848" v:groupContext="shape" transform="translate(76.4376,-7.37481) rotate(-59.0362)">
			<title>Kracht.848</title>
			<path d="M7.55 164.07 L7.91 164.07 L28.35 164.07" class="st4"/>
		</g>
		<g id="shape849-145" v:mID="849" v:groupContext="shape" transform="translate(171.605,208.008) rotate(-149.036)">
			<title>Kracht.849</title>
			<path d="M7.55 164.07 L7.91 164.07 L28.35 164.07" class="st4"/>
		</g>
		<g id="shape864-150" v:mID="864" v:groupContext="shape" transform="translate(293.46,-19.9298) rotate(30.9638) scale(-1,1)">
			<title>Moment.864</title>
			<path d="M-0 164.07 A14.1732 14.1732 0 0 1 14.17 149.9 A14.1732 14.1732 0 0 1 26.14 156.48 L26.24 156.82" class="st6"/>
		</g>
		<g id="shape865-155" v:mID="865" v:groupContext="shape" transform="translate(109.643,-34.514) rotate(-30.9638) scale(-1,1)">
			<title>Moment.865</title>
			<path d="M-0 164.07 A14.1732 14.1732 0 0 1 14.17 149.9 A14.1732 14.1732 0 0 1 26.14 156.48 L26.24 156.82" class="st6"/>
		</g>
		<g id="shape868-160" v:mID="868" v:groupContext="shape" transform="translate(33.4928,-130.579)">
			<title>Punt A.868</title>
			<desc>A</desc>
			<v:textBlock v:margins="rect(4,4,4,4)" v:tabSpace="42.5197"/>
			<v:textRect cx="7.08661" cy="156.986" width="14.18" height="14.1732"/>
			<rect x="0" y="149.899" width="14.1732" height="14.1732" class="st8"/>
			<text x="4" y="160.59" class="st9" v:langID="1043"><v:paragraph v:horizAlign="1"/><v:tabList/>A</text>		</g>
		<g id="shape869-163" v:mID="869" v:groupContext="shape" transform="translate(167.731,-24.2803)">
			<title>Punt A.869</title>
			<desc>B</desc>
			<v:textBlock v:margins="rect(4,4,4,4)" v:tabSpace="42.5197"/>
			<v:textRect cx="7.08661" cy="156.986" width="14.18" height="14.1732"/>
			<rect x="0" y="149.899" width="14.1732" height="14.1732" class="st8"/>
			<text x="4" y="160.59" class="st9" v:langID="1043"><v:paragraph v:horizAlign="1"/><v:tabList/>B</text>		</g>
		<g id="shape871-166" v:mID="871" v:groupContext="shape" transform="translate(131.997,-130.579)">
			<title>Punt A.871</title>
			<desc>C</desc>
			<v:textBlock v:margins="rect(4,4,4,4)" v:tabSpace="42.5197"/>
			<v:textRect cx="7.08661" cy="156.986" width="14.18" height="14.1732"/>
			<rect x="0" y="149.899" width="14.1732" height="14.1732" class="st8"/>
			<text x="4" y="160.59" class="st9" v:langID="1043"><v:paragraph v:horizAlign="1"/><v:tabList/>C</text>		</g>
		<g id="shape872-169" v:mID="872" v:groupContext="shape" transform="translate(217.745,-130.579)">
			<title>Punt A.872</title>
			<desc>D</desc>
			<v:textBlock v:margins="rect(4,4,4,4)" v:tabSpace="42.5197"/>
			<v:textRect cx="7.08661" cy="156.986" width="14.18" height="14.1732"/>
			<rect x="0" y="149.899" width="14.1732" height="14.1732" class="st8"/>
			<text x="4" y="160.59" class="st9" v:langID="1043"><v:paragraph v:horizAlign="1"/><v:tabList/>D</text>		</g>
		<g id="shape874-172" v:mID="874" v:groupContext="shape" transform="translate(12.9451,-96.2094)">
			<title>Blad.874</title>
			<desc>2</desc>
			<v:textBlock v:margins="rect(4,4,4,4)" v:tabSpace="42.5197"/>
			<v:textRect cx="10.9843" cy="152.911" width="21.97" height="22.3228"/>
			<rect x="0" y="141.749" width="21.9685" height="22.3228" class="st10"/>
			<text x="7.98" y="156.51" class="st11" v:langID="1043"><v:paragraph v:horizAlign="1"/><v:tabList/>2</text>		</g>
		<g id="shape875-175" v:mID="875" v:groupContext="shape" transform="translate(197.197,-11.5243)">
			<title>Blad.875</title>
			<desc>2</desc>
			<v:textBlock v:margins="rect(4,4,4,4)" v:tabSpace="42.5197"/>
			<v:textRect cx="10.9843" cy="152.911" width="21.97" height="22.3228"/>
			<rect x="0" y="141.749" width="21.9685" height="22.3228" class="st10"/>
			<text x="7.98" y="156.51" class="st11" v:langID="1043"><v:paragraph v:horizAlign="1"/><v:tabList/>2</text>		</g>
		<g id="shape877-178" v:mID="877" v:groupContext="shape" transform="translate(58.6538,-127.745)">
			<title>Blad.877</title>
			<desc>2</desc>
			<v:textBlock v:margins="rect(4,4,4,4)" v:tabSpace="42.5197"/>
			<v:textRect cx="10.9843" cy="152.911" width="21.97" height="22.3228"/>
			<rect x="0" y="141.749" width="21.9685" height="22.3228" class="st10"/>
			<text x="7.98" y="156.51" class="st11" v:langID="1043"><v:paragraph v:horizAlign="1"/><v:tabList/>2</text>		</g>
		<g id="shape878-181" v:mID="878" v:groupContext="shape" transform="translate(100.819,-93.7291)">
			<title>Blad.878</title>
			<desc>3</desc>
			<v:textBlock v:margins="rect(4,4,4,4)" v:tabSpace="42.5197"/>
			<v:textRect cx="10.9843" cy="152.911" width="21.97" height="22.3228"/>
			<rect x="0" y="141.749" width="21.9685" height="22.3228" class="st10"/>
			<text x="7.98" y="156.51" class="st11" v:langID="1043"><v:paragraph v:horizAlign="1"/><v:tabList/>3</text>		</g>
		<g id="shape879-184" v:mID="879" v:groupContext="shape" transform="translate(131.171,-82.0362)">
			<title>Blad.879</title>
			<desc>2</desc>
			<v:textBlock v:margins="rect(4,4,4,4)" v:tabSpace="42.5197"/>
			<v:textRect cx="10.9843" cy="152.911" width="21.97" height="22.3228"/>
			<rect x="0" y="141.749" width="21.9685" height="22.3228" class="st10"/>
			<text x="7.98" y="156.51" class="st11" v:langID="1043"><v:paragraph v:horizAlign="1"/><v:tabList/>2</text>		</g>
		<g id="shape880-187" v:mID="880" v:groupContext="shape" transform="translate(160.347,-130.579)">
			<title>Blad.880</title>
			<desc>3</desc>
			<v:textBlock v:margins="rect(4,4,4,4)" v:tabSpace="42.5197"/>
			<v:textRect cx="10.9843" cy="152.911" width="21.97" height="22.3228"/>
			<rect x="0" y="141.749" width="21.9685" height="22.3228" class="st10"/>
			<text x="7.98" y="156.51" class="st11" v:langID="1043"><v:paragraph v:horizAlign="1"/><v:tabList/>3</text>		</g>
		<g id="shape881-190" v:mID="881" v:groupContext="shape" transform="translate(202.512,-102.233)">
			<title>Blad.881</title>
			<desc>2</desc>
			<v:textBlock v:margins="rect(4,4,4,4)" v:tabSpace="42.5197"/>
			<v:textRect cx="10.9843" cy="152.911" width="21.97" height="22.3228"/>
			<rect x="0" y="141.749" width="21.9685" height="22.3228" class="st10"/>
			<text x="7.98" y="156.51" class="st11" v:langID="1043"><v:paragraph v:horizAlign="1"/><v:tabList/>2</text>		</g>
		<g id="shape884-193" v:mID="884" v:groupContext="shape" transform="translate(223.063,-82.3905)">
			<title>Blad.884</title>
			<desc>2</desc>
			<v:textBlock v:margins="rect(4,4,4,4)" v:tabSpace="42.5197"/>
			<v:textRect cx="10.9843" cy="152.911" width="21.97" height="22.3228"/>
			<rect x="0" y="141.749" width="21.9685" height="22.3228" class="st10"/>
			<text x="7.98" y="156.51" class="st11" v:langID="1043"><v:paragraph v:horizAlign="1"/><v:tabList/>2</text>		</g>
		<g id="shape889-196" v:mID="889" v:groupContext="shape" transform="translate(213.199,-42.7054)">
			<title>Blad.889</title>
			<desc>3</desc>
			<v:textBlock v:margins="rect(4,4,4,4)" v:tabSpace="42.5197"/>
			<v:textRect cx="10.9843" cy="152.911" width="21.97" height="22.3228"/>
			<rect x="0" y="141.749" width="21.9685" height="22.3228" class="st10"/>
			<text x="7.98" y="156.51" class="st11" v:langID="1043"><v:paragraph v:horizAlign="1"/><v:tabList/>3</text>		</g>
		<g id="shape890-199" v:mID="890" v:groupContext="shape" transform="translate(140.858,-42.5283)">
			<title>Blad.890</title>
			<desc>3</desc>
			<v:textBlock v:margins="rect(4,4,4,4)" v:tabSpace="42.5197"/>
			<v:textRect cx="10.9843" cy="152.911" width="21.97" height="22.3228"/>
			<rect x="0" y="141.749" width="21.9685" height="22.3228" class="st10"/>
			<text x="7.98" y="156.51" class="st11" v:langID="1043"><v:paragraph v:horizAlign="1"/><v:tabList/>3</text>		</g>
	</g>
</svg>
