<?xml version="1.0" encoding="UTF-8" standalone="no"?>
<!DOCTYPE svg PUBLIC "-//W3C//DTD SVG 1.1//EN" "http://www.w3.org/Graphics/SVG/1.1/DTD/svg11.dtd">
<!-- Gegenereerd door Microsoft Visio, SVG Export options.svg Pagina-1 -->
<svg xmlns="http://www.w3.org/2000/svg" xmlns:xlink="http://www.w3.org/1999/xlink" xmlns:ev="http://www.w3.org/2001/xml-events"
		xmlns:v="http://schemas.microsoft.com/visio/2003/SVGExtensions/" width="8.39007in" height="9.95923in"
		viewBox="0 0 604.085 717.064" xml:space="preserve" color-interpolation-filters="sRGB" class="st15">
	<v:documentProperties v:langID="1043" v:metric="true" v:viewMarkup="false"/>

	<style type="text/css">
	<![CDATA[
		.st1 {fill:#00cc99;stroke:#000000;stroke-linecap:round;stroke-linejoin:round;stroke-width:0.75}
		.st2 {stroke:#000000;stroke-linecap:round;stroke-linejoin:round;stroke-width:0.75}
		.st3 {stroke:#000000;stroke-linecap:round;stroke-linejoin:round;stroke-width:6}
		.st4 {stroke:#000000;stroke-linecap:round;stroke-linejoin:round;stroke-width:2}
		.st5 {fill:#ffffff;stroke:#000000;stroke-linecap:round;stroke-linejoin:round;stroke-width:0.75}
		.st6 {marker-start:url(#mrkr5-137);stroke:#800000;stroke-linecap:round;stroke-linejoin:round;stroke-width:2}
		.st7 {fill:#800000;fill-opacity:1;stroke:#800000;stroke-opacity:1;stroke-width:0.44247787610619}
		.st8 {fill:none;stroke:none;stroke-linecap:round;stroke-linejoin:round;stroke-width:0.24}
		.st9 {fill:#000000;font-family:Times New Roman;font-size:1.00001em;font-style:italic}
		.st10 {font-size:1em;font-style:normal}
		.st11 {marker-end:url(#mrkr1-147);stroke:#000000;stroke-linecap:butt;stroke-width:3}
		.st12 {fill:#000000;fill-opacity:1;stroke:#000000;stroke-opacity:1;stroke-width:0.67567567567568}
		.st13 {marker-end:url(#mrkr5-181);stroke:#800000;stroke-linecap:round;stroke-linejoin:round;stroke-width:2}
		.st14 {baseline-shift:-32.4941%;font-size:0.649882em;font-style:normal}
		.st15 {fill:none;fill-rule:evenodd;font-size:12px;overflow:visible;stroke-linecap:square;stroke-miterlimit:3}
	]]>
	</style>

	<defs id="Markers">
		<g id="lend5">
			<path d="M 2 1 L 0 0 L 1.98117 -0.993387 C 1.67173 -0.364515 1.67301 0.372641 1.98465 1.00043 " style="stroke:none"/>
		</g>
		<marker id="mrkr5-137" class="st7" v:arrowType="5" v:arrowSize="2" v:setback="3.775" refX="3.775" orient="auto"
				markerUnits="strokeWidth" overflow="visible">
			<use xlink:href="#lend5" transform="scale(2.26) "/>
		</marker>
		<g id="lend1">
			<path d="M 1 -1 L 0 0 L 1 1 " style="stroke-linecap:round;stroke-linejoin:round;fill:none"/>
		</g>
		<marker id="mrkr1-147" class="st12" v:arrowType="1" v:arrowSize="0" orient="auto" markerUnits="strokeWidth"
				overflow="visible">
			<use xlink:href="#lend1" transform="scale(-1.48,-1.48) "/>
		</marker>
		<marker id="mrkr5-181" class="st7" v:arrowType="5" v:arrowSize="2" v:setback="3.775" refX="-3.775" orient="auto"
				markerUnits="strokeWidth" overflow="visible">
			<use xlink:href="#lend5" transform="scale(-2.26,-2.26) "/>
		</marker>
	</defs>
	<g v:mID="0" v:index="1" v:groupContext="foregroundPage">
		<title>Pagina-1</title>
		<v:pageProperties v:drawingScale="0.0393701" v:pageScale="0.0393701" v:drawingUnits="24" v:shadowOffsetX="8.50394"
				v:shadowOffsetY="-8.50394"/>
		<g id="group303-1" transform="translate(29.2409,-521.761)" v:mID="303" v:groupContext="group">
			<title>Scharnieroplegging.303</title>
			<g id="shape304-2" v:mID="304" v:groupContext="shape" transform="translate(2.83465,0)">
				<title>Blad.304</title>
				<path d="M0 717.06 L14.17 717.06 L7.09 705.73 L0 717.06 Z" class="st1"/>
			</g>
			<g id="shape305-4" v:mID="305" v:groupContext="shape" transform="translate(2.83465,1434.13) rotate(180)">
				<title>Blad.305</title>
				<path d="M0 717.06 L2.83 717.06" class="st2"/>
			</g>
			<g id="shape306-7" v:mID="306" v:groupContext="shape" transform="translate(17.0079,0)">
				<title>Blad.306</title>
				<path d="M0 717.06 L2.83 717.06" class="st2"/>
			</g>
		</g>
		<g id="shape307-10" v:mID="307" v:groupContext="shape" transform="translate(39.1622,-533.099)">
			<title>Ligger, 2 pt.307</title>
			<path d="M0 717.06 L226.77 717.06" class="st3"/>
		</g>
		<g id="shape308-13" v:mID="308" v:groupContext="shape" transform="translate(982.998,183.965) rotate(90)">
			<title>Ligger, 2 pt.308</title>
			<path d="M0 717.06 L141.73 717.06" class="st4"/>
		</g>
		<g id="shape309-16" v:mID="309" v:groupContext="shape" transform="translate(263.808,-530.973)">
			<title>Scharnier.309</title>
			<ellipse cx="2.12598" cy="714.938" rx="2.12598" ry="2.12598" class="st5"/>
		</g>
		<g id="group310-18" transform="translate(256.013,-380.028)" v:mID="310" v:groupContext="group">
			<title>Scharnieroplegging.310</title>
			<g id="shape311-19" v:mID="311" v:groupContext="shape" transform="translate(2.83465,0)">
				<title>Blad.311</title>
				<path d="M0 717.06 L14.17 717.06 L7.09 705.73 L0 717.06 Z" class="st1"/>
			</g>
			<g id="shape312-21" v:mID="312" v:groupContext="shape" transform="translate(2.83465,1434.13) rotate(180)">
				<title>Blad.312</title>
				<path d="M0 717.06 L2.83 717.06" class="st2"/>
			</g>
			<g id="shape313-24" v:mID="313" v:groupContext="shape" transform="translate(17.0079,0)">
				<title>Blad.313</title>
				<path d="M0 717.06 L2.83 717.06" class="st2"/>
			</g>
		</g>
		<g id="shape314-27" v:mID="314" v:groupContext="shape" transform="translate(612.814,-397.454) rotate(53.1301)">
			<title>Ligger, 2 pt.314</title>
			<path d="M0 717.06 L188.98 717.06" class="st4"/>
		</g>
		<g id="shape328-30" v:mID="328" v:groupContext="shape" transform="translate(148.296,-535.934)">
			<title>Scharnier.328</title>
			<ellipse cx="2.12598" cy="714.938" rx="2.12598" ry="2.12598" class="st5"/>
		</g>
		<g id="group359-32" transform="translate(313.414,-521.761)" v:mID="359" v:groupContext="group">
			<title>Scharnieroplegging.359</title>
			<g id="shape360-33" v:mID="360" v:groupContext="shape" transform="translate(2.83465,0)">
				<title>Blad.360</title>
				<path d="M0 717.06 L14.17 717.06 L7.09 705.73 L0 717.06 Z" class="st1"/>
			</g>
			<g id="shape361-35" v:mID="361" v:groupContext="shape" transform="translate(2.83465,1434.13) rotate(180)">
				<title>Blad.361</title>
				<path d="M0 717.06 L2.83 717.06" class="st2"/>
			</g>
			<g id="shape362-38" v:mID="362" v:groupContext="shape" transform="translate(17.0079,0)">
				<title>Blad.362</title>
				<path d="M0 717.06 L2.83 717.06" class="st2"/>
			</g>
		</g>
		<g id="shape363-41" v:mID="363" v:groupContext="shape" transform="translate(323.335,-533.099)">
			<title>Ligger, 2 pt.363</title>
			<path d="M0 717.06 L226.77 717.06" class="st3"/>
		</g>
		<g id="shape364-44" v:mID="364" v:groupContext="shape" transform="translate(1267.17,183.965) rotate(90)">
			<title>Ligger, 2 pt.364</title>
			<path d="M0 717.06 L141.73 717.06" class="st4"/>
		</g>
		<g id="shape365-47" v:mID="365" v:groupContext="shape" transform="translate(547.981,-530.973)">
			<title>Scharnier.365</title>
			<ellipse cx="2.12598" cy="714.938" rx="2.12598" ry="2.12598" class="st5"/>
		</g>
		<g id="group366-49" transform="translate(540.186,-380.028)" v:mID="366" v:groupContext="group">
			<title>Scharnieroplegging.366</title>
			<g id="shape367-50" v:mID="367" v:groupContext="shape" transform="translate(2.83465,0)">
				<title>Blad.367</title>
				<path d="M0 717.06 L14.17 717.06 L7.09 705.73 L0 717.06 Z" class="st1"/>
			</g>
			<g id="shape368-52" v:mID="368" v:groupContext="shape" transform="translate(2.83465,1434.13) rotate(180)">
				<title>Blad.368</title>
				<path d="M0 717.06 L2.83 717.06" class="st2"/>
			</g>
			<g id="shape369-55" v:mID="369" v:groupContext="shape" transform="translate(17.0079,0)">
				<title>Blad.369</title>
				<path d="M0 717.06 L2.83 717.06" class="st2"/>
			</g>
		</g>
		<g id="shape370-58" v:mID="370" v:groupContext="shape" transform="translate(896.987,-397.454) rotate(53.1301)">
			<title>Ligger, 2 pt.370</title>
			<path d="M0 717.06 L188.98 717.06" class="st4"/>
		</g>
		<g id="group371-61" transform="translate(1029.06,22.3905) rotate(90)" v:mID="371" v:groupContext="group">
			<title>Scharnieroplegging.371</title>
			<g id="shape372-62" v:mID="372" v:groupContext="shape" transform="translate(2.83465,0)">
				<title>Blad.372</title>
				<path d="M0 717.06 L14.17 717.06 L7.09 705.73 L0 717.06 Z" class="st1"/>
			</g>
			<g id="shape373-64" v:mID="373" v:groupContext="shape" transform="translate(2.83465,1434.13) rotate(180)">
				<title>Blad.373</title>
				<path d="M0 717.06 L2.83 717.06" class="st2"/>
			</g>
			<g id="shape374-67" v:mID="374" v:groupContext="shape" transform="translate(17.0079,0)">
				<title>Blad.374</title>
				<path d="M0 717.06 L2.83 717.06" class="st2"/>
			</g>
		</g>
		<g id="shape380-70" v:mID="380" v:groupContext="shape" transform="translate(39.1621,-180.186)">
			<title>Ligger, 2 pt.380</title>
			<path d="M0 717.06 L226.77 717.06" class="st3"/>
		</g>
		<g id="shape381-73" v:mID="381" v:groupContext="shape" transform="translate(982.998,536.879) rotate(90)">
			<title>Ligger, 2 pt.381</title>
			<path d="M0 717.06 L141.73 717.06" class="st4"/>
		</g>
		<g id="shape382-76" v:mID="382" v:groupContext="shape" transform="translate(263.808,-178.06)">
			<title>Scharnier.382</title>
			<ellipse cx="2.12598" cy="714.938" rx="2.12598" ry="2.12598" class="st5"/>
		</g>
		<g id="group383-78" transform="translate(256.013,-27.1149)" v:mID="383" v:groupContext="group">
			<title>Scharnieroplegging.383</title>
			<g id="shape384-79" v:mID="384" v:groupContext="shape" transform="translate(2.83465,0)">
				<title>Blad.384</title>
				<path d="M0 717.06 L14.17 717.06 L7.09 705.73 L0 717.06 Z" class="st1"/>
			</g>
			<g id="shape385-81" v:mID="385" v:groupContext="shape" transform="translate(2.83465,1434.13) rotate(180)">
				<title>Blad.385</title>
				<path d="M0 717.06 L2.83 717.06" class="st2"/>
			</g>
			<g id="shape386-84" v:mID="386" v:groupContext="shape" transform="translate(17.0079,0)">
				<title>Blad.386</title>
				<path d="M0 717.06 L2.83 717.06" class="st2"/>
			</g>
		</g>
		<g id="shape387-87" v:mID="387" v:groupContext="shape" transform="translate(612.814,-44.5411) rotate(53.1301)">
			<title>Ligger, 2 pt.387</title>
			<path d="M0 717.06 L188.98 717.06" class="st4"/>
		</g>
		<g id="group388-90" transform="translate(744.888,375.304) rotate(90)" v:mID="388" v:groupContext="group">
			<title>Scharnieroplegging.388</title>
			<g id="shape389-91" v:mID="389" v:groupContext="shape" transform="translate(2.83465,0)">
				<title>Blad.389</title>
				<path d="M0 717.06 L14.17 717.06 L7.09 705.73 L0 717.06 Z" class="st1"/>
			</g>
			<g id="shape390-93" v:mID="390" v:groupContext="shape" transform="translate(2.83465,1434.13) rotate(180)">
				<title>Blad.390</title>
				<path d="M0 717.06 L2.83 717.06" class="st2"/>
			</g>
			<g id="shape391-96" v:mID="391" v:groupContext="shape" transform="translate(17.0079,0)">
				<title>Blad.391</title>
				<path d="M0 717.06 L2.83 717.06" class="st2"/>
			</g>
		</g>
		<g id="shape392-99" v:mID="392" v:groupContext="shape" transform="translate(148.296,-183.02)">
			<title>Scharnier.392</title>
			<ellipse cx="2.12598" cy="714.938" rx="2.12598" ry="2.12598" class="st5"/>
		</g>
		<g id="group393-101" transform="translate(312.705,-168.847)" v:mID="393" v:groupContext="group">
			<title>Scharnieroplegging.393</title>
			<g id="shape394-102" v:mID="394" v:groupContext="shape" transform="translate(2.83465,0)">
				<title>Blad.394</title>
				<path d="M0 717.06 L14.17 717.06 L7.09 705.73 L0 717.06 Z" class="st1"/>
			</g>
			<g id="shape395-104" v:mID="395" v:groupContext="shape" transform="translate(2.83465,1434.13) rotate(180)">
				<title>Blad.395</title>
				<path d="M0 717.06 L2.83 717.06" class="st2"/>
			</g>
			<g id="shape396-107" v:mID="396" v:groupContext="shape" transform="translate(17.0079,0)">
				<title>Blad.396</title>
				<path d="M0 717.06 L2.83 717.06" class="st2"/>
			</g>
		</g>
		<g id="shape397-110" v:mID="397" v:groupContext="shape" transform="translate(322.627,-180.186)">
			<title>Ligger, 2 pt.397</title>
			<path d="M0 717.06 L226.77 717.06" class="st3"/>
		</g>
		<g id="shape398-113" v:mID="398" v:groupContext="shape" transform="translate(1266.46,536.879) rotate(90)">
			<title>Ligger, 2 pt.398</title>
			<path d="M0 717.06 L141.73 717.06" class="st4"/>
		</g>
		<g id="shape399-116" v:mID="399" v:groupContext="shape" transform="translate(547.272,-178.06)">
			<title>Scharnier.399</title>
			<ellipse cx="2.12598" cy="714.938" rx="2.12598" ry="2.12598" class="st5"/>
		</g>
		<g id="shape404-118" v:mID="404" v:groupContext="shape" transform="translate(896.278,-44.5411) rotate(53.1301)">
			<title>Ligger, 2 pt.404</title>
			<path d="M0 717.06 L188.98 717.06" class="st4"/>
		</g>
		<g id="group405-121" transform="translate(1028.35,375.304) rotate(90)" v:mID="405" v:groupContext="group">
			<title>Scharnieroplegging.405</title>
			<g id="shape406-122" v:mID="406" v:groupContext="shape" transform="translate(2.83465,0)">
				<title>Blad.406</title>
				<path d="M0 717.06 L14.17 717.06 L7.09 705.73 L0 717.06 Z" class="st1"/>
			</g>
			<g id="shape407-124" v:mID="407" v:groupContext="shape" transform="translate(2.83465,1434.13) rotate(180)">
				<title>Blad.407</title>
				<path d="M0 717.06 L2.83 717.06" class="st2"/>
			</g>
			<g id="shape408-127" v:mID="408" v:groupContext="shape" transform="translate(17.0079,0)">
				<title>Blad.408</title>
				<path d="M0 717.06 L2.83 717.06" class="st2"/>
			</g>
		</g>
		<g id="shape409-130" v:mID="409" v:groupContext="shape" transform="translate(431.761,-183.02)">
			<title>Scharnier.409</title>
			<ellipse cx="2.12598" cy="714.938" rx="2.12598" ry="2.12598" class="st5"/>
		</g>
		<g id="shape410-132" v:mID="410" v:groupContext="shape" transform="translate(595.806,-420.132) rotate(53.1301)">
			<title>Kracht.410</title>
			<path d="M7.55 717.06 L7.91 717.06 L28.35 717.06" class="st6"/>
		</g>
		<g id="shape411-138" v:mID="411" v:groupContext="shape" transform="translate(37.0362,-692.529)">
			<title>Punt A.411</title>
			<desc>w = 0</desc>
			<v:textBlock v:margins="rect(4,4,4,4)" v:tabSpace="42.5197"/>
			<v:textRect cx="28.3465" cy="709.978" width="56.7" height="14.1732"/>
			<rect x="0" y="702.891" width="56.6929" height="14.1732" class="st8"/>
			<text x="14.96" y="713.58" class="st9" v:langID="1043"><v:paragraph v:horizAlign="1"/><v:tabList/>w <tspan class="st10">= 0</tspan></text>		</g>
		<g id="shape412-142" v:mID="412" v:groupContext="shape" transform="translate(-529.529,459.716) rotate(-126.87)">
			<title>verplaatsing</title>
			<path d="M0 717.06 L28.35 717.06" class="st11"/>
		</g>
		<g id="shape413-148" v:mID="413" v:groupContext="shape" transform="translate(10.107,-180.186)">
			<title>Kracht.413</title>
			<path d="M7.55 717.06 L7.91 717.06 L28.35 717.06" class="st6"/>
		</g>
		<g id="group414-153" transform="translate(28.5322,-166.013)" v:mID="414" v:groupContext="group">
			<title>Rol</title>
			<g id="group415-154" transform="translate(0.261477,-2.83465)" v:mID="415" v:groupContext="group">
				<title>Scharnier</title>
				<g id="shape416-155" v:mID="416" v:groupContext="shape" transform="translate(2.79729,0)">
					<title>Blad.416</title>
					<path d="M0 717.06 L13.99 717.06 L6.99 705.73 L0 717.06 Z" class="st1"/>
				</g>
				<g id="shape417-157" v:mID="417" v:groupContext="shape" transform="translate(2.79729,1434.13) rotate(180)">
					<title>Blad.417</title>
					<path d="M0 717.06 L2.8 717.06" class="st2"/>
				</g>
				<g id="shape418-160" v:mID="418" v:groupContext="shape" transform="translate(16.7838,0)">
					<title>Blad.418</title>
					<path d="M0 717.06 L2.8 717.06" class="st2"/>
				</g>
			</g>
			<g id="shape419-163" v:mID="419" v:groupContext="shape">
				<title>Blad.419</title>
				<path d="M0 717.06 L19.84 717.06" class="st2"/>
			</g>
		</g>
		<g id="shape420-166" v:mID="420" v:groupContext="shape" transform="translate(7.27239,-195.776)">
			<title>Punt A.420</title>
			<desc>w = 0</desc>
			<v:textBlock v:margins="rect(4,4,4,4)" v:tabSpace="42.5197"/>
			<v:textRect cx="28.3465" cy="709.978" width="56.7" height="14.1732"/>
			<rect x="0" y="702.891" width="56.6929" height="14.1732" class="st8"/>
			<text x="14.96" y="713.58" class="st9" v:langID="1043"><v:paragraph v:horizAlign="1"/><v:tabList/>w<tspan class="st10"> </tspan><tspan
						class="st10">= 0</tspan></text>		</g>
		<g id="shape421-171" v:mID="421" v:groupContext="shape" transform="translate(38.4535,1244.02) rotate(180)">
			<title>verplaatsing.421</title>
			<path d="M0 717.06 L28.35 717.06" class="st11"/>
		</g>
		<g id="shape422-176" v:mID="422" v:groupContext="shape" transform="translate(-260.501,198.139) rotate(-90)">
			<title>Moment.422</title>
			<path d="M-0 717.06 A14.1732 14.1732 0 0 1 14.17 702.89 A14.1732 14.1732 0 0 1 26.14 709.47 L26.24 709.81" class="st13"/>
		</g>
		<g id="shape423-182" v:mID="423" v:groupContext="shape" transform="translate(1132.53,198.139) rotate(90) scale(-1,1)">
			<title>Moment.423</title>
			<path d="M-0 717.06 A14.1732 14.1732 0 0 1 14.17 702.89 A14.1732 14.1732 0 0 1 26.14 709.47 L26.24 709.81" class="st13"/>
		</g>
		<g id="shape424-187" v:mID="424" v:groupContext="shape" transform="translate(-286.145,387.968) rotate(73.4712) scale(1,-1)">
			<title>Hoekverdraaiing</title>
			<path d="M0 717.06 C5.4 715.97 9.68 715.69 15 717.06" class="st11"/>
		</g>
		<g id="shape425-192" v:mID="425" v:groupContext="shape" transform="translate(737.213,835.031) rotate(155.225)">
			<title>Blad.425</title>
			<path d="M0 717.06 L40.59 717.06" class="st2"/>
		</g>
		<g id="shape426-195" v:mID="426" v:groupContext="shape" transform="translate(774.064,818.023) rotate(155.225)">
			<title>Blad.426</title>
			<path d="M0 717.06 L40.59 717.06" class="st2"/>
		</g>
		<g id="shape427-198" v:mID="427" v:groupContext="shape" transform="translate(1159.59,-20.0371) rotate(73.4712) scale(-1,1)">
			<title>Hoekverdraaiing.427</title>
			<path d="M0 717.06 C5.4 715.97 9.68 715.69 15 717.06" class="st11"/>
		</g>
		<g id="shape428-203" v:mID="428" v:groupContext="shape" transform="translate(442.391,-557.194)">
			<title>Punt A.428</title>
			<desc>φAD = φDE</desc>
			<v:textBlock v:margins="rect(4,4,4,4)" v:tabSpace="42.5197"/>
			<v:textRect cx="28.3465" cy="709.978" width="56.7" height="14.1732"/>
			<rect x="0" y="702.891" width="56.6929" height="14.1732" class="st8"/>
			<text x="4.49" y="713.58" class="st9" v:langID="1043"><v:paragraph v:horizAlign="1"/><v:tabList/>φ<tspan dy="-0.279em"
						class="st14" v:baseFontSize="12">AD</tspan><tspan dy="0.181em" class="st10"> </tspan><tspan class="st10">= </tspan>φ<tspan
						dy="-0.279em" class="st14" v:baseFontSize="12">DE</tspan></text>		</g>
		<g id="shape430-210" v:mID="430" v:groupContext="shape" transform="translate(1266.46,678.611) rotate(90)">
			<title>Kracht.430</title>
			<path d="M7.55 717.06 L7.91 717.06 L28.35 717.06" class="st6"/>
		</g>
		<g id="shape431-215" v:mID="431" v:groupContext="shape" transform="translate(547.272,-24.2803)">
			<title>Punt A.431</title>
			<desc>w = 0</desc>
			<v:textBlock v:margins="rect(4,4,4,4)" v:tabSpace="42.5197"/>
			<v:textRect cx="28.3465" cy="709.978" width="56.7" height="14.1732"/>
			<rect x="0" y="702.891" width="56.6929" height="14.1732" class="st8"/>
			<text x="14.96" y="713.58" class="st9" v:langID="1043"><v:paragraph v:horizAlign="1"/><v:tabList/>w <tspan class="st10">= 0</tspan></text>		</g>
		<g id="shape432-219" v:mID="432" v:groupContext="shape" transform="translate(1272.84,678.611) rotate(90)">
			<title>verplaatsing.432</title>
			<path d="M0 717.06 L28.35 717.06" class="st11"/>
		</g>
		<g id="shape375-224" v:mID="375" v:groupContext="shape" transform="translate(434.595,-530.973)">
			<title>Scharnier.375</title>
			<ellipse cx="2.12598" cy="714.938" rx="2.12598" ry="2.12598" class="st5"/>
		</g>
	</g>
</svg>
