<?xml version="1.0" encoding="UTF-8" standalone="no"?>
<!DOCTYPE svg PUBLIC "-//W3C//DTD SVG 1.1//EN" "http://www.w3.org/Graphics/SVG/1.1/DTD/svg11.dtd">
<!-- Gegenereerd door Microsoft Visio, SVG Export options.svg Pagina-1 -->
<svg xmlns="http://www.w3.org/2000/svg" xmlns:xlink="http://www.w3.org/1999/xlink" xmlns:ev="http://www.w3.org/2001/xml-events"
		xmlns:v="http://schemas.microsoft.com/visio/2003/SVGExtensions/" width="8.50818in" height="10.559in"
		viewBox="0 0 612.589 760.246" xml:space="preserve" color-interpolation-filters="sRGB" class="st17">
	<v:documentProperties v:langID="1043" v:metric="true" v:viewMarkup="false"/>

	<style type="text/css">
	<![CDATA[
		.st1 {marker-start:url(#mrkr5-6);stroke:#800000;stroke-linecap:round;stroke-linejoin:round;stroke-width:2}
		.st2 {fill:#800000;fill-opacity:1;stroke:#800000;stroke-opacity:1;stroke-width:0.44247787610619}
		.st3 {fill:#00cc99;stroke:#000000;stroke-linecap:round;stroke-linejoin:round;stroke-width:0.75}
		.st4 {stroke:#000000;stroke-linecap:round;stroke-linejoin:round;stroke-width:0.75}
		.st5 {stroke:#000000;stroke-linecap:round;stroke-linejoin:round;stroke-width:6}
		.st6 {stroke:#000000;stroke-linecap:round;stroke-linejoin:round;stroke-width:2}
		.st7 {fill:#ffffff;stroke:#000000;stroke-linecap:round;stroke-linejoin:round;stroke-width:0.75}
		.st8 {fill:none;stroke:none;stroke-linecap:round;stroke-linejoin:round;stroke-width:0.24}
		.st9 {fill:#000000;font-family:Times New Roman;font-size:1.00001em;font-style:italic}
		.st10 {baseline-shift:-32.4941%;font-size:0.649882em;font-style:normal}
		.st11 {baseline-shift:32.4941%;font-size:0.649882em;font-style:normal}
		.st12 {font-size:1em}
		.st13 {font-size:1em;font-style:normal}
		.st14 {marker-end:url(#mrkr1-157);stroke:#000000;stroke-linecap:butt;stroke-width:3}
		.st15 {fill:#000000;fill-opacity:1;stroke:#000000;stroke-opacity:1;stroke-width:0.67567567567568}
		.st16 {marker-end:url(#mrkr5-192);stroke:#800000;stroke-linecap:round;stroke-linejoin:round;stroke-width:2}
		.st17 {fill:none;fill-rule:evenodd;font-size:12px;overflow:visible;stroke-linecap:square;stroke-miterlimit:3}
	]]>
	</style>

	<defs id="Markers">
		<g id="lend5">
			<path d="M 2 1 L 0 0 L 1.98117 -0.993387 C 1.67173 -0.364515 1.67301 0.372641 1.98465 1.00043 " style="stroke:none"/>
		</g>
		<marker id="mrkr5-6" class="st2" v:arrowType="5" v:arrowSize="2" v:setback="3.775" refX="3.775" orient="auto"
				markerUnits="strokeWidth" overflow="visible">
			<use xlink:href="#lend5" transform="scale(2.26) "/>
		</marker>
		<g id="lend1">
			<path d="M 1 -1 L 0 0 L 1 1 " style="stroke-linecap:round;stroke-linejoin:round;fill:none"/>
		</g>
		<marker id="mrkr1-157" class="st15" v:arrowType="1" v:arrowSize="0" orient="auto" markerUnits="strokeWidth"
				overflow="visible">
			<use xlink:href="#lend1" transform="scale(-1.48,-1.48) "/>
		</marker>
		<marker id="mrkr5-192" class="st2" v:arrowType="5" v:arrowSize="2" v:setback="3.775" refX="-3.775" orient="auto"
				markerUnits="strokeWidth" overflow="visible">
			<use xlink:href="#lend5" transform="scale(-2.26,-2.26) "/>
		</marker>
	</defs>
	<g v:mID="0" v:index="1" v:groupContext="foregroundPage">
		<title>Pagina-1</title>
		<v:pageProperties v:drawingScale="0.0393701" v:pageScale="0.0393701" v:drawingUnits="24" v:shadowOffsetX="8.50394"
				v:shadowOffsetY="-8.50394"/>
		<g id="shape2154-1" v:mID="2154" v:groupContext="shape" transform="translate(742.482,-254.699) rotate(53.1301)">
			<title>Kracht.2154</title>
			<path d="M7.55 760.25 L7.91 760.25 L28.35 760.25" class="st1"/>
		</g>
		<g id="group303-7" transform="translate(29.2409,-521.761)" v:mID="303" v:groupContext="group">
			<title>Scharnieroplegging.303</title>
			<g id="shape304-8" v:mID="304" v:groupContext="shape" transform="translate(2.83465,1.13687E-13)">
				<title>Blad.304</title>
				<path d="M0 760.25 L14.17 760.25 L7.09 748.91 L0 760.25 Z" class="st3"/>
			</g>
			<g id="shape305-10" v:mID="305" v:groupContext="shape" transform="translate(2.83465,1520.49) rotate(180)">
				<title>Blad.305</title>
				<path d="M0 760.25 L2.83 760.25" class="st4"/>
			</g>
			<g id="shape306-13" v:mID="306" v:groupContext="shape" transform="translate(17.0079,1.13687E-13)">
				<title>Blad.306</title>
				<path d="M0 760.25 L2.83 760.25" class="st4"/>
			</g>
		</g>
		<g id="shape307-16" v:mID="307" v:groupContext="shape" transform="translate(39.1622,-533.099)">
			<title>Ligger, 2 pt.307</title>
			<path d="M0 760.25 L226.77 760.25" class="st5"/>
		</g>
		<g id="shape308-19" v:mID="308" v:groupContext="shape" transform="translate(1026.18,227.147) rotate(90)">
			<title>Ligger, 2 pt.308</title>
			<path d="M0 760.25 L141.73 760.25" class="st6"/>
		</g>
		<g id="shape309-22" v:mID="309" v:groupContext="shape" transform="translate(263.808,-530.973)">
			<title>Scharnier.309</title>
			<ellipse cx="2.12598" cy="758.12" rx="2.12598" ry="2.12598" class="st7"/>
		</g>
		<g id="group310-24" transform="translate(256.013,-380.028)" v:mID="310" v:groupContext="group">
			<title>Scharnieroplegging.310</title>
			<g id="shape311-25" v:mID="311" v:groupContext="shape" transform="translate(2.83465,1.13687E-13)">
				<title>Blad.311</title>
				<path d="M0 760.25 L14.17 760.25 L7.09 748.91 L0 760.25 Z" class="st3"/>
			</g>
			<g id="shape312-27" v:mID="312" v:groupContext="shape" transform="translate(2.83465,1520.49) rotate(180)">
				<title>Blad.312</title>
				<path d="M0 760.25 L2.83 760.25" class="st4"/>
			</g>
			<g id="shape313-30" v:mID="313" v:groupContext="shape" transform="translate(17.0079,1.13687E-13)">
				<title>Blad.313</title>
				<path d="M0 760.25 L2.83 760.25" class="st4"/>
			</g>
		</g>
		<g id="shape314-33" v:mID="314" v:groupContext="shape" transform="translate(646.65,-445.851) rotate(53.1301)">
			<title>Ligger, 2 pt.314</title>
			<path d="M0 760.25 L188.98 760.25" class="st6"/>
		</g>
		<g id="shape328-36" v:mID="328" v:groupContext="shape" transform="translate(148.296,-535.934)">
			<title>Scharnier.328</title>
			<ellipse cx="2.12598" cy="758.12" rx="2.12598" ry="2.12598" class="st7"/>
		</g>
		<g id="group359-38" transform="translate(313.414,-521.761)" v:mID="359" v:groupContext="group">
			<title>Scharnieroplegging.359</title>
			<g id="shape360-39" v:mID="360" v:groupContext="shape" transform="translate(2.83465,1.13687E-13)">
				<title>Blad.360</title>
				<path d="M0 760.25 L14.17 760.25 L7.09 748.91 L0 760.25 Z" class="st3"/>
			</g>
			<g id="shape361-41" v:mID="361" v:groupContext="shape" transform="translate(2.83465,1520.49) rotate(180)">
				<title>Blad.361</title>
				<path d="M0 760.25 L2.83 760.25" class="st4"/>
			</g>
			<g id="shape362-44" v:mID="362" v:groupContext="shape" transform="translate(17.0079,1.13687E-13)">
				<title>Blad.362</title>
				<path d="M0 760.25 L2.83 760.25" class="st4"/>
			</g>
		</g>
		<g id="shape363-47" v:mID="363" v:groupContext="shape" transform="translate(323.335,-533.099)">
			<title>Ligger, 2 pt.363</title>
			<path d="M0 760.25 L226.77 760.25" class="st5"/>
		</g>
		<g id="shape364-50" v:mID="364" v:groupContext="shape" transform="translate(1310.35,227.147) rotate(90)">
			<title>Ligger, 2 pt.364</title>
			<path d="M0 760.25 L141.73 760.25" class="st6"/>
		</g>
		<g id="shape365-53" v:mID="365" v:groupContext="shape" transform="translate(547.981,-530.973)">
			<title>Scharnier.365</title>
			<ellipse cx="2.12598" cy="758.12" rx="2.12598" ry="2.12598" class="st7"/>
		</g>
		<g id="group366-55" transform="translate(540.186,-380.028)" v:mID="366" v:groupContext="group">
			<title>Scharnieroplegging.366</title>
			<g id="shape367-56" v:mID="367" v:groupContext="shape" transform="translate(2.83465,1.13687E-13)">
				<title>Blad.367</title>
				<path d="M0 760.25 L14.17 760.25 L7.09 748.91 L0 760.25 Z" class="st3"/>
			</g>
			<g id="shape368-58" v:mID="368" v:groupContext="shape" transform="translate(2.83465,1520.49) rotate(180)">
				<title>Blad.368</title>
				<path d="M0 760.25 L2.83 760.25" class="st4"/>
			</g>
			<g id="shape369-61" v:mID="369" v:groupContext="shape" transform="translate(17.0079,1.13687E-13)">
				<title>Blad.369</title>
				<path d="M0 760.25 L2.83 760.25" class="st4"/>
			</g>
		</g>
		<g id="shape370-64" v:mID="370" v:groupContext="shape" transform="translate(931.532,-380.182) rotate(53.1301)">
			<title>Ligger, 2 pt.370</title>
			<path d="M0 760.25 L188.98 760.25" class="st6"/>
		</g>
		<g id="group371-67" transform="translate(1072.24,65.5719) rotate(90)" v:mID="371" v:groupContext="group">
			<title>Scharnieroplegging.371</title>
			<g id="shape372-68" v:mID="372" v:groupContext="shape" transform="translate(2.83465,1.13687E-13)">
				<title>Blad.372</title>
				<path d="M0 760.25 L14.17 760.25 L7.09 748.91 L0 760.25 Z" class="st3"/>
			</g>
			<g id="shape373-70" v:mID="373" v:groupContext="shape" transform="translate(2.83465,1520.49) rotate(180)">
				<title>Blad.373</title>
				<path d="M0 760.25 L2.83 760.25" class="st4"/>
			</g>
			<g id="shape374-73" v:mID="374" v:groupContext="shape" transform="translate(17.0079,1.13687E-13)">
				<title>Blad.374</title>
				<path d="M0 760.25 L2.83 760.25" class="st4"/>
			</g>
		</g>
		<g id="shape380-76" v:mID="380" v:groupContext="shape" transform="translate(39.1621,-180.186)">
			<title>Ligger, 2 pt.380</title>
			<path d="M0 760.25 L226.77 760.25" class="st5"/>
		</g>
		<g id="shape381-79" v:mID="381" v:groupContext="shape" transform="translate(1026.18,580.06) rotate(90)">
			<title>Ligger, 2 pt.381</title>
			<path d="M0 760.25 L141.73 760.25" class="st6"/>
		</g>
		<g id="shape382-82" v:mID="382" v:groupContext="shape" transform="translate(263.808,-178.06)">
			<title>Scharnier.382</title>
			<ellipse cx="2.12598" cy="758.12" rx="2.12598" ry="2.12598" class="st7"/>
		</g>
		<g id="group383-84" transform="translate(256.013,-27.1149)" v:mID="383" v:groupContext="group">
			<title>Scharnieroplegging.383</title>
			<g id="shape384-85" v:mID="384" v:groupContext="shape" transform="translate(2.83465,1.13687E-13)">
				<title>Blad.384</title>
				<path d="M0 760.25 L14.17 760.25 L7.09 748.91 L0 760.25 Z" class="st3"/>
			</g>
			<g id="shape385-87" v:mID="385" v:groupContext="shape" transform="translate(2.83465,1520.49) rotate(180)">
				<title>Blad.385</title>
				<path d="M0 760.25 L2.83 760.25" class="st4"/>
			</g>
			<g id="shape386-90" v:mID="386" v:groupContext="shape" transform="translate(17.0079,1.13687E-13)">
				<title>Blad.386</title>
				<path d="M0 760.25 L2.83 760.25" class="st4"/>
			</g>
		</g>
		<g id="shape387-93" v:mID="387" v:groupContext="shape" transform="translate(647.359,-27.2686) rotate(53.1301)">
			<title>Ligger, 2 pt.387</title>
			<path d="M0 760.25 L188.98 760.25" class="st6"/>
		</g>
		<g id="group388-96" transform="translate(788.069,418.485) rotate(90)" v:mID="388" v:groupContext="group">
			<title>Scharnieroplegging.388</title>
			<g id="shape389-97" v:mID="389" v:groupContext="shape" transform="translate(2.83465,1.13687E-13)">
				<title>Blad.389</title>
				<path d="M0 760.25 L14.17 760.25 L7.09 748.91 L0 760.25 Z" class="st3"/>
			</g>
			<g id="shape390-99" v:mID="390" v:groupContext="shape" transform="translate(2.83465,1520.49) rotate(180)">
				<title>Blad.390</title>
				<path d="M0 760.25 L2.83 760.25" class="st4"/>
			</g>
			<g id="shape391-102" v:mID="391" v:groupContext="shape" transform="translate(17.0079,1.13687E-13)">
				<title>Blad.391</title>
				<path d="M0 760.25 L2.83 760.25" class="st4"/>
			</g>
		</g>
		<g id="shape392-105" v:mID="392" v:groupContext="shape" transform="translate(148.296,-183.02)">
			<title>Scharnier.392</title>
			<ellipse cx="2.12598" cy="758.12" rx="2.12598" ry="2.12598" class="st7"/>
		</g>
		<g id="group393-107" transform="translate(312.705,-168.847)" v:mID="393" v:groupContext="group">
			<title>Scharnieroplegging.393</title>
			<g id="shape394-108" v:mID="394" v:groupContext="shape" transform="translate(2.83465,1.13687E-13)">
				<title>Blad.394</title>
				<path d="M0 760.25 L14.17 760.25 L7.09 748.91 L0 760.25 Z" class="st3"/>
			</g>
			<g id="shape395-110" v:mID="395" v:groupContext="shape" transform="translate(2.83465,1520.49) rotate(180)">
				<title>Blad.395</title>
				<path d="M0 760.25 L2.83 760.25" class="st4"/>
			</g>
			<g id="shape396-113" v:mID="396" v:groupContext="shape" transform="translate(17.0079,1.13687E-13)">
				<title>Blad.396</title>
				<path d="M0 760.25 L2.83 760.25" class="st4"/>
			</g>
		</g>
		<g id="shape397-116" v:mID="397" v:groupContext="shape" transform="translate(322.627,-180.186)">
			<title>Ligger, 2 pt.397</title>
			<path d="M0 760.25 L226.77 760.25" class="st5"/>
		</g>
		<g id="shape398-119" v:mID="398" v:groupContext="shape" transform="translate(1309.64,580.06) rotate(90)">
			<title>Ligger, 2 pt.398</title>
			<path d="M0 760.25 L141.73 760.25" class="st6"/>
		</g>
		<g id="shape399-122" v:mID="399" v:groupContext="shape" transform="translate(547.272,-178.06)">
			<title>Scharnier.399</title>
			<ellipse cx="2.12598" cy="758.12" rx="2.12598" ry="2.12598" class="st7"/>
		</g>
		<g id="shape404-124" v:mID="404" v:groupContext="shape" transform="translate(930.823,-27.2686) rotate(53.1301)">
			<title>Ligger, 2 pt.404</title>
			<path d="M0 760.25 L188.98 760.25" class="st6"/>
		</g>
		<g id="group405-127" transform="translate(1071.53,418.485) rotate(90)" v:mID="405" v:groupContext="group">
			<title>Scharnieroplegging.405</title>
			<g id="shape406-128" v:mID="406" v:groupContext="shape" transform="translate(2.83465,1.13687E-13)">
				<title>Blad.406</title>
				<path d="M0 760.25 L14.17 760.25 L7.09 748.91 L0 760.25 Z" class="st3"/>
			</g>
			<g id="shape407-130" v:mID="407" v:groupContext="shape" transform="translate(2.83465,1520.49) rotate(180)">
				<title>Blad.407</title>
				<path d="M0 760.25 L2.83 760.25" class="st4"/>
			</g>
			<g id="shape408-133" v:mID="408" v:groupContext="shape" transform="translate(17.0079,1.13687E-13)">
				<title>Blad.408</title>
				<path d="M0 760.25 L2.83 760.25" class="st4"/>
			</g>
		</g>
		<g id="shape409-136" v:mID="409" v:groupContext="shape" transform="translate(431.761,-183.02)">
			<title>Scharnier.409</title>
			<ellipse cx="2.12598" cy="758.12" rx="2.12598" ry="2.12598" class="st7"/>
		</g>
		<g id="shape410-138" v:mID="410" v:groupContext="shape" transform="translate(-439.349,640.302) rotate(-126.87)">
			<title>Kracht.410</title>
			<path d="M7.55 760.25 L7.91 760.25 L28.35 760.25" class="st1"/>
		</g>
		<g id="shape411-143" v:mID="411" v:groupContext="shape" transform="translate(49.7921,-574.202)">
			<title>Punt A.411</title>
			<desc>wDCD = wDADE</desc>
			<v:textBlock v:margins="rect(4,4,4,4)" v:tabSpace="42.5197"/>
			<v:textRect cx="44.6457" cy="753.159" width="89.3" height="14.1732"/>
			<rect x="0" y="746.073" width="89.2913" height="14.1732" class="st8"/>
			<text x="11.2" y="756.76" class="st9" v:langID="1043"><v:paragraph v:horizAlign="1"/><v:tabList/>w<tspan dy="-0.279em"
						class="st10" v:baseFontSize="12">D</tspan><tspan dy="0.081em" class="st11" v:baseFontSize="12">CD</tspan><tspan
						dy="0.129em" class="st12"> </tspan><tspan class="st13">= </tspan>w<tspan dy="-0.279em" class="st10"
						v:baseFontSize="12">D</tspan><tspan dy="0.081em" class="st11" v:baseFontSize="12">ADE</tspan></text>		</g>
		<g id="shape412-152" v:mID="412" v:groupContext="shape" transform="translate(910.932,159.939) rotate(90)">
			<title>verplaatsing</title>
			<path d="M0 760.25 L28.35 760.25" class="st14"/>
		</g>
		<g id="shape413-158" v:mID="413" v:groupContext="shape" transform="translate(10.107,-180.186)">
			<title>Kracht.413</title>
			<path d="M7.55 760.25 L7.91 760.25 L28.35 760.25" class="st1"/>
		</g>
		<g id="group414-163" transform="translate(28.5322,-166.013)" v:mID="414" v:groupContext="group">
			<title>Rol</title>
			<g id="group415-164" transform="translate(0.261477,-2.83465)" v:mID="415" v:groupContext="group">
				<title>Scharnier</title>
				<g id="shape416-165" v:mID="416" v:groupContext="shape" transform="translate(2.79729,1.13687E-13)">
					<title>Blad.416</title>
					<path d="M0 760.25 L13.99 760.25 L6.99 748.91 L0 760.25 Z" class="st3"/>
				</g>
				<g id="shape417-167" v:mID="417" v:groupContext="shape" transform="translate(2.79729,1520.49) rotate(180)">
					<title>Blad.417</title>
					<path d="M0 760.25 L2.8 760.25" class="st4"/>
				</g>
				<g id="shape418-170" v:mID="418" v:groupContext="shape" transform="translate(16.7838,1.13687E-13)">
					<title>Blad.418</title>
					<path d="M0 760.25 L2.8 760.25" class="st4"/>
				</g>
			</g>
			<g id="shape419-173" v:mID="419" v:groupContext="shape">
				<title>Blad.419</title>
				<path d="M0 760.25 L19.84 760.25" class="st4"/>
			</g>
		</g>
		<g id="shape420-176" v:mID="420" v:groupContext="shape" transform="translate(63.9653,-195.776) scale(-1,1)">
			<title>Punt A.420</title>
			<desc>wA,h = 0</desc>
			<v:textBlock v:margins="rect(4,4,4,4)" v:tabSpace="42.5197"/>
			<v:textRect cx="28.3465" cy="753.159" width="56.7" height="14.1732"/>
			<rect x="0" y="746.073" width="56.6929" height="14.1732" class="st8"/>
			<text x="-47.47" y="756.76" transform="scale(-1,1)" class="st9" v:langID="1043"><v:paragraph v:horizAlign="1"/><v:tabList/>w<tspan
						dy="-0.279em" class="st10" v:baseFontSize="12">A,h</tspan><tspan dy="0.181em" class="st13"> </tspan><tspan
						class="st13">= 0</tspan></text>		</g>
		<g id="shape421-182" v:mID="421" v:groupContext="shape" transform="translate(38.4535,1330.38) rotate(180)">
			<title>verplaatsing.421</title>
			<path d="M0 760.25 L28.35 760.25" class="st14"/>
		</g>
		<g id="shape422-187" v:mID="422" v:groupContext="shape" transform="translate(-303.682,241.32) rotate(-90)">
			<title>Moment.422</title>
			<path d="M-0 760.25 A14.1732 14.1732 0 0 1 14.17 746.07 A14.1732 14.1732 0 0 1 26.14 752.65 L26.24 753" class="st16"/>
		</g>
		<g id="shape423-193" v:mID="423" v:groupContext="shape" transform="translate(1175.71,241.32) rotate(90) scale(-1,1)">
			<title>Moment.423</title>
			<path d="M-0 760.25 A14.1732 14.1732 0 0 1 14.17 746.07 A14.1732 14.1732 0 0 1 26.14 752.65 L26.24 753" class="st16"/>
		</g>
		<g id="shape424-198" v:mID="424" v:groupContext="shape" transform="translate(-327.542,443.434) rotate(73.4712) scale(1,-1)">
			<title>Hoekverdraaiing</title>
			<path d="M0 760.25 C5.4 759.16 9.68 758.88 15 760.25" class="st14"/>
		</g>
		<g id="shape425-203" v:mID="425" v:groupContext="shape" transform="translate(755.309,917.419) rotate(155.225)">
			<title>Blad.425</title>
			<path d="M0 760.25 L40.59 760.25" class="st4"/>
		</g>
		<g id="shape426-206" v:mID="426" v:groupContext="shape" transform="translate(792.159,900.411) rotate(155.225)">
			<title>Blad.426</title>
			<path d="M0 760.25 L40.59 760.25" class="st4"/>
		</g>
		<g id="shape427-209" v:mID="427" v:groupContext="shape" transform="translate(1200.98,10.8593) rotate(73.4712) scale(-1,1)">
			<title>Hoekverdraaiing.427</title>
			<path d="M0 760.25 C5.4 759.16 9.68 758.88 15 760.25" class="st14"/>
		</g>
		<g id="shape428-214" v:mID="428" v:groupContext="shape" transform="translate(435.304,-557.194)">
			<title>Punt A.428</title>
			<desc>φDAD = φDDE</desc>
			<v:textBlock v:margins="rect(4,4,4,4)" v:tabSpace="42.5197"/>
			<v:textRect cx="44.6457" cy="753.159" width="89.3" height="14.1732"/>
			<rect x="0" y="746.073" width="89.2913" height="14.1732" class="st8"/>
			<text x="15.16" y="756.76" class="st9" v:langID="1043"><v:paragraph v:horizAlign="1"/><v:tabList/>φ<tspan dy="-0.279em"
						class="st10" v:baseFontSize="12">D</tspan><tspan dy="0.081em" class="st11" v:baseFontSize="12">AD</tspan><tspan
						dy="0.129em" class="st13"> </tspan><tspan class="st13">= </tspan>φ<tspan dy="-0.279em" class="st10"
						v:baseFontSize="12">D</tspan><tspan dy="0.081em" class="st11" v:baseFontSize="12">DE</tspan></text>		</g>
		<g id="shape430-223" v:mID="430" v:groupContext="shape" transform="translate(1309.64,721.792) rotate(90)">
			<title>Kracht.430</title>
			<path d="M7.55 760.25 L7.91 760.25 L28.35 760.25" class="st1"/>
		</g>
		<g id="shape431-228" v:mID="431" v:groupContext="shape" transform="translate(548.69,-24.2803)">
			<title>Punt A.431</title>
			<desc>wB,v = 0</desc>
			<v:textBlock v:margins="rect(4,4,4,4)" v:tabSpace="42.5197"/>
			<v:textRect cx="31.8898" cy="753.159" width="63.78" height="14.1732"/>
			<rect x="0" y="746.073" width="63.7795" height="14.1732" class="st8"/>
			<text x="12.98" y="756.76" class="st9" v:langID="1043"><v:paragraph v:horizAlign="1"/><v:tabList/>w<tspan dy="-0.279em"
						class="st10" v:baseFontSize="12">B,v</tspan><tspan dy="0.181em" class="st12"> </tspan><tspan class="st13">= 0</tspan></text>		</g>
		<g id="shape432-234" v:mID="432" v:groupContext="shape" transform="translate(1316.02,721.792) rotate(90)">
			<title>verplaatsing.432</title>
			<path d="M0 760.25 L28.35 760.25" class="st14"/>
		</g>
		<g id="shape375-239" v:mID="375" v:groupContext="shape" transform="translate(434.595,-530.973)">
			<title>Scharnier.375</title>
			<ellipse cx="2.12598" cy="758.12" rx="2.12598" ry="2.12598" class="st7"/>
		</g>
		<g id="group2150-241" transform="translate(787.361,0.375) rotate(90)" v:mID="2150" v:groupContext="group">
			<title>Scharnieroplegging.2150</title>
			<g id="shape2151-242" v:mID="2151" v:groupContext="shape" transform="translate(2.83465,1.13687E-13)">
				<title>Blad.2151</title>
				<path d="M0 760.25 L14.17 760.25 L7.09 748.91 L0 760.25 Z" class="st3"/>
			</g>
			<g id="shape2152-244" v:mID="2152" v:groupContext="shape" transform="translate(2.83465,1520.49) rotate(180)">
				<title>Blad.2152</title>
				<path d="M0 760.25 L2.83 760.25" class="st4"/>
			</g>
			<g id="shape2153-247" v:mID="2153" v:groupContext="shape" transform="translate(17.0079,1.13687E-13)">
				<title>Blad.2153</title>
				<path d="M0 760.25 L2.83 760.25" class="st4"/>
			</g>
		</g>
		<g id="shape2155-250" v:mID="2155" v:groupContext="shape" transform="translate(912.085,229.981) rotate(90)">
			<title>verplaatsing.2155</title>
			<path d="M0 760.25 L28.35 760.25" class="st14"/>
		</g>
	</g>
</svg>
